<svg width="48" height="48" viewBox="0 0 48 48" fill="none" xmlns="http://www.w3.org/2000/svg">
<path d="M12 37.7251V10.0021C12 8.94679 13.2642 8.40538 14.0281 9.13364L32.9479 27.1726C33.546 27.7428 33.4022 28.7328 32.6666 29.1094L13.7467 38.7934C12.9482 39.2021 12 38.6222 12 37.7251Z" fill="url(#paint0_linear_19_2261)"/>
<path d="M35.9992 9.67483V37.3979C35.9992 38.4532 34.735 38.9946 33.9712 38.2663L15.0513 20.2274C14.4532 19.6572 14.597 18.6672 15.3326 18.2906L34.2525 8.60663C35.051 8.19792 35.9992 8.77782 35.9992 9.67483Z" fill="url(#paint1_linear_19_2261)"/>
<path d="M178.188 27.3333H181.862C181.764 28.6337 181.403 29.7871 180.78 30.7936C180.156 31.7911 179.288 32.5749 178.174 33.145C177.061 33.715 175.712 34 174.126 34C172.906 34 171.806 33.7862 170.826 33.3587C169.856 32.9223 169.023 32.3033 168.328 31.5017C167.642 30.6912 167.117 29.7203 166.752 28.5892C166.386 27.4491 166.204 26.171 166.204 24.7548V23.2719C166.204 21.8557 166.391 20.5776 166.765 19.4375C167.139 18.2975 167.673 17.3267 168.368 16.5251C169.072 15.7145 169.914 15.0911 170.893 14.6546C171.882 14.2182 172.986 14 174.207 14C175.792 14 177.132 14.2939 178.228 14.8818C179.323 15.4607 180.174 16.2578 180.78 17.2732C181.385 18.2886 181.751 19.4554 181.875 20.7735H178.201C178.13 19.9541 177.952 19.2594 177.667 18.6894C177.391 18.1193 176.972 17.6874 176.411 17.3935C175.859 17.0906 175.124 16.9392 174.207 16.9392C173.494 16.9392 172.866 17.0728 172.323 17.34C171.788 17.6072 171.343 18.008 170.987 18.5424C170.631 19.0679 170.363 19.727 170.185 20.5197C170.007 21.3035 169.918 22.212 169.918 23.2452V24.7548C169.918 25.7435 169.998 26.6297 170.158 27.4135C170.319 28.1973 170.568 28.8608 170.907 29.4041C171.245 29.9475 171.681 30.3616 172.216 30.6466C172.75 30.9316 173.387 31.0741 174.126 31.0741C175.026 31.0741 175.756 30.9316 176.317 30.6466C176.887 30.3616 177.319 29.943 177.613 29.3908C177.916 28.8386 178.108 28.1528 178.188 27.3333Z" fill="black"/>
<defs>
<linearGradient id="paint0_linear_19_2261" x1="22.8" y1="9" x2="12.5659" y2="38.9884" gradientUnits="userSpaceOnUse">
<stop stop-color="#EC5413"/>
<stop offset="1" stop-color="#FFA34D"/>
</linearGradient>
<linearGradient id="paint1_linear_19_2261" x1="15.5994" y1="19.8" x2="30.8946" y2="12.5824" gradientUnits="userSpaceOnUse">
<stop stop-color="#FFA34D"/>
<stop offset="1" stop-color="#EC5413"/>
</linearGradient>
</defs>
</svg>
