<svg width="145" height="142" viewBox="0 0 145 142" fill="none" xmlns="http://www.w3.org/2000/svg">
<path opacity="0.12" fill-rule="evenodd" clip-rule="evenodd" d="M100.541 36.7501C112.375 45.9816 129.544 51.184 131.717 66.0759C134.015 81.8296 123.199 96.517 110.708 106.44C99.1758 115.602 84.2967 117.186 69.7419 115.311C54.3269 113.325 38.3802 109.036 29.8875 96.0267C20.7317 82.0017 20.3291 64.1449 26.004 48.3133C32.0577 31.4249 42.8416 13.2875 60.5291 10.5436C77.1463 7.96574 87.3153 26.4328 100.541 36.7501Z" fill="#0747A6" fill-opacity="0.5"/>
<path d="M94.1818 78.1818C93.8188 79.0044 93.7105 79.9169 93.8709 80.8016C94.0313 81.6863 94.4531 82.5027 95.0818 83.1455L95.2455 83.3091C95.7526 83.8157 96.1549 84.4172 96.4294 85.0794C96.7039 85.7416 96.8452 86.4514 96.8452 87.1682C96.8452 87.885 96.7039 88.5948 96.4294 89.2569C96.1549 89.9191 95.7526 90.5207 95.2455 91.0273C94.7389 91.5344 94.1373 91.9367 93.4751 92.2112C92.813 92.4857 92.1032 92.627 91.3864 92.627C90.6696 92.627 89.9598 92.4857 89.2976 92.2112C88.6354 91.9367 88.0339 91.5344 87.5273 91.0273L87.3636 90.8636C86.7209 90.2349 85.9045 89.8131 85.0198 89.6527C84.1351 89.4923 83.2226 89.6006 82.4 89.9636C81.5934 90.3094 80.9054 90.8834 80.4208 91.6151C79.9363 92.3468 79.6762 93.2042 79.6727 94.0818V94.5455C79.6727 95.9921 79.0981 97.3795 78.0751 98.4024C77.0522 99.4253 75.6648 100 74.2182 100C72.7715 100 71.3842 99.4253 70.3612 98.4024C69.3383 97.3795 68.7636 95.9921 68.7636 94.5455V94.3C68.7425 93.3973 68.4503 92.5218 67.925 91.7874C67.3997 91.0529 66.6656 90.4935 65.8182 90.1818C64.9956 89.8188 64.0831 89.7105 63.1984 89.8709C62.3137 90.0313 61.4973 90.4531 60.8545 91.0818L60.6909 91.2455C60.1843 91.7526 59.5828 92.1549 58.9206 92.4294C58.2584 92.7039 57.5486 92.8452 56.8318 92.8452C56.115 92.8452 55.4052 92.7039 54.7431 92.4294C54.0809 92.1549 53.4793 91.7526 52.9727 91.2455C52.4656 90.7389 52.0633 90.1373 51.7888 89.4751C51.5143 88.813 51.373 88.1032 51.373 87.3864C51.373 86.6696 51.5143 85.9598 51.7888 85.2976C52.0633 84.6354 52.4656 84.0339 52.9727 83.5273L53.1364 83.3636C53.7651 82.7209 54.1869 81.9045 54.3473 81.0198C54.5077 80.1351 54.3994 79.2226 54.0364 78.4C53.6906 77.5934 53.1166 76.9054 52.3849 76.4208C51.6532 75.9363 50.7958 75.6762 49.9182 75.6727H49.4545C48.0079 75.6727 46.6205 75.0981 45.5976 74.0751C44.5747 73.0522 44 71.6648 44 70.2182C44 68.7715 44.5747 67.3842 45.5976 66.3612C46.6205 65.3383 48.0079 64.7636 49.4545 64.7636H49.7C50.6027 64.7425 51.4782 64.4503 52.2126 63.925C52.9471 63.3997 53.5065 62.6656 53.8182 61.8182C54.1812 60.9956 54.2895 60.0831 54.1291 59.1984C53.9687 58.3137 53.5469 57.4973 52.9182 56.8545L52.7545 56.6909C52.2474 56.1843 51.8451 55.5828 51.5706 54.9206C51.2961 54.2584 51.1548 53.5486 51.1548 52.8318C51.1548 52.115 51.2961 51.4052 51.5706 50.7431C51.8451 50.0809 52.2474 49.4793 52.7545 48.9727C53.2611 48.4656 53.8627 48.0633 54.5249 47.7888C55.187 47.5143 55.8968 47.373 56.6136 47.373C57.3304 47.373 58.0402 47.5143 58.7024 47.7888C59.3646 48.0633 59.9661 48.4656 60.4727 48.9727L60.6364 49.1364C61.2791 49.7651 62.0955 50.1869 62.9802 50.3473C63.8649 50.5077 64.7774 50.3994 65.6 50.0364H65.8182C66.6248 49.6906 67.3128 49.1166 67.7973 48.3849C68.2819 47.6532 68.542 46.7958 68.5455 45.9182V45.4545C68.5455 44.0079 69.1201 42.6205 70.1431 41.5976C71.166 40.5747 72.5534 40 74 40C75.4466 40 76.834 40.5747 77.8569 41.5976C78.8799 42.6205 79.4545 44.0079 79.4545 45.4545V45.7C79.458 46.5776 79.7181 47.435 80.2027 48.1667C80.6872 48.8984 81.3752 49.4725 82.1818 49.8182C83.0044 50.1812 83.9169 50.2895 84.8016 50.1291C85.6863 49.9687 86.5027 49.5469 87.1455 48.9182L87.3091 48.7545C87.8157 48.2474 88.4172 47.8451 89.0794 47.5706C89.7416 47.2961 90.4514 47.1548 91.1682 47.1548C91.885 47.1548 92.5948 47.2961 93.2569 47.5706C93.9191 47.8451 94.5207 48.2474 95.0273 48.7545C95.5344 49.2611 95.9367 49.8627 96.2112 50.5249C96.4857 51.187 96.627 51.8968 96.627 52.6136C96.627 53.3304 96.4857 54.0402 96.2112 54.7024C95.9367 55.3646 95.5344 55.9661 95.0273 56.4727L94.8636 56.6364C94.2349 57.2791 93.8131 58.0955 93.6527 58.9802C93.4923 59.8649 93.6006 60.7774 93.9636 61.6V61.8182C94.3094 62.6248 94.8834 63.3128 95.6151 63.7973C96.3468 64.2819 97.2042 64.542 98.0818 64.5455H98.5455C99.9921 64.5455 101.379 65.1201 102.402 66.1431C103.425 67.166 104 68.5534 104 70C104 71.4466 103.425 72.834 102.402 73.8569C101.379 74.8799 99.9921 75.4545 98.5455 75.4545H98.3C97.4224 75.458 96.565 75.7181 95.8333 76.2027C95.1016 76.6872 94.5275 77.3752 94.1818 78.1818V78.1818Z" stroke="#091E42" strokeWidth="2" strokeLinecap="round" strokeLinejoin="round"/>
<path d="M68.8786 67.9277L66.5583 75H64.6891L67.859 66.4688H69.0485L68.8786 67.9277ZM70.8063 75L68.4801 67.9277L68.2926 66.4688H69.4938L72.6813 75H70.8063ZM70.7008 71.8242V73.2012H66.195V71.8242H70.7008ZM76.7946 71.959H74.6208V70.5879H76.7946C77.1305 70.5879 77.404 70.5332 77.6149 70.4238C77.8258 70.3105 77.9801 70.1543 78.0778 69.9551C78.1754 69.7559 78.2243 69.5312 78.2243 69.2812C78.2243 69.0273 78.1754 68.791 78.0778 68.5723C77.9801 68.3535 77.8258 68.1777 77.6149 68.0449C77.404 67.9121 77.1305 67.8457 76.7946 67.8457H75.2301V75H73.4723V66.4688H76.7946C77.4626 66.4688 78.0348 66.5898 78.5114 66.832C78.9918 67.0703 79.359 67.4004 79.6129 67.8223C79.8668 68.2441 79.9938 68.7266 79.9938 69.2695C79.9938 69.8203 79.8668 70.2969 79.6129 70.6992C79.359 71.1016 78.9918 71.4121 78.5114 71.6309C78.0348 71.8496 77.4626 71.959 76.7946 71.959ZM83.0758 66.4688V75H81.3239V66.4688H83.0758Z" fill="#091E42"/>
</svg>
