<svg width="48" height="36" viewBox="0 0 48 36" fill="none" xmlns="http://www.w3.org/2000/svg">
<rect width="48" height="36" rx="18" fill="#3E4741"/>
<path d="M28.7532 15.25H27.6602C27.3356 13.9821 26.6649 12.8315 25.7244 11.9288C24.7838 11.0262 23.6111 10.4077 22.3395 10.1437C21.0679 9.87974 19.7483 9.98079 18.5308 10.4354C17.3133 10.89 16.2466 11.6799 15.4519 12.7155C14.6573 13.751 14.1665 14.9905 14.0355 16.2933C13.9044 17.5961 14.1383 18.9098 14.7105 20.0852C15.2827 21.2606 16.1703 22.2506 17.2725 22.9426C18.3746 23.6346 19.6472 24.001 20.9454 24H28.7532C29.9037 24 31.007 23.5391 31.8204 22.7186C32.6339 21.8981 33.0909 20.7853 33.0909 19.625C33.0909 18.4647 32.6339 17.3519 31.8204 16.5314C31.007 15.7109 29.9037 15.25 28.7532 15.25Z" stroke="#3B7C3B" strokeLinecap="round" strokeLinejoin="round"/>
<rect x="21" y="22" width="14" height="7" fill="#3E4741"/>
<path d="M29.5 23L27.4375 25L26.5 24.0909" stroke="#3B7C3B" strokeLinecap="round" strokeLinejoin="round"/>
<circle cx="28" cy="24" r="3.5" stroke="#3B7C3B"/>
</svg>
