<svg width="233" height="228" viewBox="0 0 233 228" fill="none" xmlns="http://www.w3.org/2000/svg">
<path opacity="0.12" fill-rule="evenodd" clip-rule="evenodd" d="M161.273 59.2932C180.366 74.1875 208.067 82.5811 211.572 106.608C215.28 132.025 197.83 155.722 177.677 171.733C159.07 186.515 135.064 189.07 111.581 186.044C86.7099 182.84 60.9814 175.92 47.2791 154.931C32.5069 132.303 31.8574 103.492 41.0134 77.9494C50.7805 50.7014 68.1795 21.4383 96.7168 17.0112C123.527 12.8521 139.934 42.6471 161.273 59.2932Z" fill="#6396F9"/>
<path d="M13.7656 98.9507V108.604" stroke="#6396F9" strokeLinecap="round" strokeLinejoin="round"/>
<path d="M18.5938 103.778L8.94 103.778" stroke="#6396F9" strokeLinecap="round" strokeLinejoin="round"/>
<path d="M180.293 33.7881V43.4418" stroke="#6396F9" strokeLinecap="round" strokeLinejoin="round"/>
<path d="M185.121 38.6149L175.467 38.6149" stroke="#6396F9" strokeLinecap="round" strokeLinejoin="round"/>
<path d="M185.004 186.975V196.629" stroke="#6396F9" strokeLinecap="round" strokeLinejoin="round"/>
<path d="M189.832 191.802L180.178 191.802" stroke="#6396F9" strokeLinecap="round" strokeLinejoin="round"/>
<path d="M124.219 79.8893L159.781 95.8281L113.872 108.785L78.1914 91.356L124.219 79.8893Z" fill="#E0CFB5"/>
<path d="M124.086 79.8893V128.78L159.542 142.781L159.781 95.8417L124.086 79.8893Z" fill="#CFB594"/>
<path d="M124.219 79.8893L159.781 95.8281L113.991 108.785L78.1914 91.356L124.219 79.8893Z" fill="#CFD4DB"/>
<path d="M124.086 79.8893V128.78L159.781 142.781V95.8417L124.086 79.8893Z" fill="#CFD4DB"/>
<path d="M159.781 143.66L113.887 159.779V108.58L159.781 95.1872V143.66Z" fill="#192D4F"/>
<path d="M78.1914 91.7875V138.357L113.887 159.779V109.484L78.1914 91.7875Z" fill="#192D4E"/>
<path d="M79.0092 91.7876L124.084 80.0199L115.465 76.4896L69.6914 87.9043L79.0092 91.7876Z" fill="#395178"/>
<path d="M157.819 96.7909L122.902 80.3418L133.529 78.0933L168.796 94.5424L157.819 96.7909Z" fill="#395178"/>
<path d="M113.887 109.148V110.485L108.432 124.083L78.1914 109.148V103.686L113.887 109.148Z" fill="#192D4E"/>
<path d="M113.887 108.683V110.052L119.847 124.083L159.781 111.763V107.086L113.887 108.683Z" fill="#192D4E"/>
<path d="M113.886 108.637L78.3744 91.7875L67.9922 99.5474L103.15 117.284L113.886 108.637Z" fill="#395178"/>
<path d="M159.256 95.1872L113.887 108.632L123.785 118.984L169.979 104.111L159.256 95.1872Z" fill="#395178"/>
</svg>
