<svg width="96" height="44" viewBox="0 0 96 44" fill="none" xmlns="http://www.w3.org/2000/svg">
<g filter="url(#filter0_d_7302_13065)">
<rect x="4" y="4" width="88" height="36" rx="2" fill="white"/>
</g>
<path d="M44.2988 26H42.5176L42.5293 25.0801H44.2988C44.9082 25.0801 45.416 24.9531 45.8223 24.6992C46.2285 24.4414 46.5332 24.082 46.7363 23.6211C46.9434 23.1562 47.0469 22.6133 47.0469 21.9922V21.4707C47.0469 20.9824 46.9883 20.5488 46.8711 20.1699C46.7539 19.7871 46.582 19.4648 46.3555 19.2031C46.1289 18.9375 45.8516 18.7363 45.5234 18.5996C45.1992 18.4629 44.8262 18.3945 44.4043 18.3945H42.4824V17.4688H44.4043C44.9629 17.4688 45.4727 17.5625 45.9336 17.75C46.3945 17.9336 46.791 18.2012 47.123 18.5527C47.459 18.9004 47.7168 19.3223 47.8965 19.8184C48.0762 20.3105 48.166 20.8652 48.166 21.4824V21.9922C48.166 22.6094 48.0762 23.166 47.8965 23.6621C47.7168 24.1543 47.457 24.5742 47.1172 24.9219C46.7812 25.2695 46.375 25.5371 45.8984 25.7246C45.4258 25.9082 44.8926 26 44.2988 26ZM43.1211 17.4688V26H41.9902V17.4688H43.1211ZM50.8789 19.6602V26H49.7891V19.6602H50.8789ZM49.707 17.9785C49.707 17.8027 49.7598 17.6543 49.8652 17.5332C49.9746 17.4121 50.1348 17.3516 50.3457 17.3516C50.5527 17.3516 50.7109 17.4121 50.8203 17.5332C50.9336 17.6543 50.9902 17.8027 50.9902 17.9785C50.9902 18.1465 50.9336 18.291 50.8203 18.4121C50.7109 18.5293 50.5527 18.5879 50.3457 18.5879C50.1348 18.5879 49.9746 18.5293 49.8652 18.4121C49.7598 18.291 49.707 18.1465 49.707 17.9785ZM56.3105 24.3184C56.3105 24.1621 56.2754 24.0176 56.2051 23.8848C56.1387 23.748 56 23.625 55.7891 23.5156C55.582 23.4023 55.2695 23.3047 54.8516 23.2227C54.5 23.1484 54.1816 23.0605 53.8965 22.959C53.6152 22.8574 53.375 22.7344 53.1758 22.5898C52.9805 22.4453 52.8301 22.2754 52.7246 22.0801C52.6191 21.8848 52.5664 21.6562 52.5664 21.3945C52.5664 21.1445 52.6211 20.9082 52.7305 20.6855C52.8438 20.4629 53.002 20.2656 53.2051 20.0938C53.4121 19.9219 53.6602 19.7871 53.9492 19.6895C54.2383 19.5918 54.5605 19.543 54.916 19.543C55.4238 19.543 55.8574 19.6328 56.2168 19.8125C56.5762 19.9922 56.8516 20.2324 57.043 20.5332C57.2344 20.8301 57.3301 21.1602 57.3301 21.5234H56.2461C56.2461 21.3477 56.1934 21.1777 56.0879 21.0137C55.9863 20.8457 55.8359 20.707 55.6367 20.5977C55.4414 20.4883 55.2012 20.4336 54.916 20.4336C54.6152 20.4336 54.3711 20.4805 54.1836 20.5742C54 20.6641 53.8652 20.7793 53.7793 20.9199C53.6973 21.0605 53.6562 21.209 53.6562 21.3652C53.6562 21.4824 53.6758 21.5879 53.7148 21.6816C53.7578 21.7715 53.832 21.8555 53.9375 21.9336C54.043 22.0078 54.1914 22.0781 54.3828 22.1445C54.5742 22.2109 54.8184 22.2773 55.1152 22.3438C55.6348 22.4609 56.0625 22.6016 56.3984 22.7656C56.7344 22.9297 56.9844 23.1309 57.1484 23.3691C57.3125 23.6074 57.3945 23.8965 57.3945 24.2363C57.3945 24.5137 57.3359 24.7676 57.2188 24.998C57.1055 25.2285 56.9395 25.4277 56.7207 25.5957C56.5059 25.7598 56.248 25.8887 55.9473 25.9824C55.6504 26.0723 55.3164 26.1172 54.9453 26.1172C54.3867 26.1172 53.9141 26.0176 53.5273 25.8184C53.1406 25.6191 52.8477 25.3613 52.6484 25.0449C52.4492 24.7285 52.3496 24.3945 52.3496 24.043H53.4395C53.4551 24.3398 53.541 24.5762 53.6973 24.752C53.8535 24.9238 54.0449 25.0469 54.2715 25.1211C54.498 25.1914 54.7227 25.2266 54.9453 25.2266C55.2422 25.2266 55.4902 25.1875 55.6895 25.1094C55.8926 25.0312 56.0469 24.9238 56.1523 24.7871C56.2578 24.6504 56.3105 24.4941 56.3105 24.3184ZM59.9961 17V26H58.9062V17H59.9961ZM62.9141 19.6602V26H61.8242V19.6602H62.9141ZM61.7422 17.9785C61.7422 17.8027 61.7949 17.6543 61.9004 17.5332C62.0098 17.4121 62.1699 17.3516 62.3809 17.3516C62.5879 17.3516 62.7461 17.4121 62.8555 17.5332C62.9688 17.6543 63.0254 17.8027 63.0254 17.9785C63.0254 18.1465 62.9688 18.291 62.8555 18.4121C62.7461 18.5293 62.5879 18.5879 62.3809 18.5879C62.1699 18.5879 62.0098 18.5293 61.9004 18.4121C61.7949 18.291 61.7422 18.1465 61.7422 17.9785ZM65.7441 17V26H64.6543V17H65.7441ZM69.6172 19.6602L66.8516 22.6191L65.3047 24.2246L65.2168 23.0703L66.3242 21.7461L68.293 19.6602H69.6172ZM68.627 26L66.3652 22.9766L66.9277 22.0098L69.9043 26H68.627ZM73.25 26.1172C72.8086 26.1172 72.4082 26.043 72.0488 25.8945C71.6934 25.7422 71.3867 25.5293 71.1289 25.2559C70.875 24.9824 70.6797 24.6582 70.543 24.2832C70.4062 23.9082 70.3379 23.498 70.3379 23.0527V22.8066C70.3379 22.291 70.4141 21.832 70.5664 21.4297C70.7188 21.0234 70.9258 20.6797 71.1875 20.3984C71.4492 20.1172 71.7461 19.9043 72.0781 19.7598C72.4102 19.6152 72.7539 19.543 73.1094 19.543C73.5625 19.543 73.9531 19.6211 74.2812 19.7773C74.6133 19.9336 74.8848 20.1523 75.0957 20.4336C75.3066 20.7109 75.4629 21.0391 75.5645 21.418C75.666 21.793 75.7168 22.2031 75.7168 22.6484V23.1348H70.9824V22.25H74.6328V22.168C74.6172 21.8867 74.5586 21.6133 74.457 21.3477C74.3594 21.082 74.2031 20.8633 73.9883 20.6914C73.7734 20.5195 73.4805 20.4336 73.1094 20.4336C72.8633 20.4336 72.6367 20.4863 72.4297 20.5918C72.2227 20.6934 72.0449 20.8457 71.8965 21.0488C71.748 21.252 71.6328 21.5 71.5508 21.793C71.4688 22.0859 71.4277 22.4238 71.4277 22.8066V23.0527C71.4277 23.3535 71.4688 23.6367 71.5508 23.9023C71.6367 24.1641 71.7598 24.3945 71.9199 24.5938C72.084 24.793 72.2812 24.9492 72.5117 25.0625C72.7461 25.1758 73.0117 25.2324 73.3086 25.2324C73.6914 25.2324 74.0156 25.1543 74.2812 24.998C74.5469 24.8418 74.7793 24.6328 74.9785 24.3711L75.6348 24.8926C75.498 25.0996 75.3242 25.2969 75.1133 25.4844C74.9023 25.6719 74.6426 25.8242 74.334 25.9414C74.0293 26.0586 73.668 26.1172 73.25 26.1172Z" fill="#212121"/>
<path d="M27.9167 16.1667H29.4742C29.8043 16.1609 30.1251 16.2765 30.3757 16.4915C30.6262 16.7066 30.7891 17.0062 30.8334 17.3334V21.4167C30.7891 21.7439 30.6262 22.0435 30.3757 22.2586C30.1251 22.4736 29.8043 22.5892 29.4742 22.5834H27.9167M23.8334 23.75V26.0834C23.8334 26.5475 24.0177 26.9926 24.3459 27.3208C24.6741 27.649 25.1192 27.8334 25.5834 27.8334L27.9167 22.5834V16.1667H21.3367C21.0553 16.1635 20.7823 16.2621 20.5679 16.4444C20.3535 16.6266 20.2122 16.8802 20.17 17.1584L19.365 22.4084C19.3396 22.5756 19.3509 22.7463 19.3981 22.9087C19.4452 23.0712 19.5271 23.2214 19.6381 23.349C19.7491 23.4766 19.8865 23.5786 20.0408 23.6478C20.1951 23.7171 20.3626 23.752 20.5317 23.75H23.8334Z" stroke="#212121" strokeLinecap="round" strokeLinejoin="round"/>
<defs>
<filter id="filter0_d_7302_13065" x="0" y="0" width="96" height="44" filterUnits="userSpaceOnUse" color-interpolation-filters="sRGB">
<feFlood flood-opacity="0" result="BackgroundImageFix"/>
<feColorMatrix in="SourceAlpha" type="matrix" values="0 0 0 0 0 0 0 0 0 0 0 0 0 0 0 0 0 0 127 0" result="hardAlpha"/>
<feOffset/>
<feGaussianBlur stdDeviation="2"/>
<feComposite in2="hardAlpha" operator="out"/>
<feColorMatrix type="matrix" values="0 0 0 0 0 0 0 0 0 0 0 0 0 0 0 0 0 0 0.16 0"/>
<feBlend mode="normal" in2="BackgroundImageFix" result="effect1_dropShadow_7302_13065"/>
<feBlend mode="normal" in="SourceGraphic" in2="effect1_dropShadow_7302_13065" result="shape"/>
</filter>
</defs>
</svg>
