<svg width="141" height="138" viewBox="0 0 141 138" fill="none" xmlns="http://www.w3.org/2000/svg">
<path d="M75.4154 39.9167H55.7487C54.4447 39.9167 53.1941 40.4347 52.2721 41.3567C51.35 42.2788 50.832 43.5294 50.832 44.8334V84.1667C50.832 85.4707 51.35 86.7212 52.2721 87.6433C53.1941 88.5654 54.4447 89.0834 55.7487 89.0834H85.2487C86.5527 89.0834 87.8032 88.5654 88.7253 87.6433C89.6474 86.7212 90.1654 85.4707 90.1654 84.1667V54.6667L75.4154 39.9167Z" stroke="#09234E" strokeWidth="2" strokeLinecap="round" strokeLinejoin="round"/>
<path d="M75.418 39.9167V54.6667H90.168" stroke="#09234E" strokeWidth="2" strokeLinecap="round" strokeLinejoin="round"/>
<path d="M80.3346 66.9583H60.668" stroke="#09234E" strokeWidth="2" strokeLinecap="round" strokeLinejoin="round"/>
<path d="M80.3346 76.7917H60.668" stroke="#09234E" strokeWidth="2" strokeLinecap="round" strokeLinejoin="round"/>
<path d="M65.5846 57.125H63.1263H60.668" stroke="#09234E" strokeWidth="2" strokeLinecap="round" strokeLinejoin="round"/>
<path opacity="0.12" fill-rule="evenodd" clip-rule="evenodd" d="M97.5921 35.8813C109.146 44.8946 125.909 49.9739 128.03 64.5138C130.274 79.8951 119.715 94.2353 107.519 103.924C96.2589 112.869 81.7316 114.416 67.5208 112.585C52.4702 110.645 36.9006 106.458 28.6087 93.7565C19.6693 80.0631 19.2762 62.6285 24.817 47.1711C30.7276 30.682 41.2565 12.9734 58.5259 10.2943C74.7502 7.77743 84.6788 25.8079 97.5921 35.8813Z" fill="#0747A6" fill-opacity="0.5"/>
</svg>
