<svg width="14" height="14" viewBox="0 0 12 12" fill="none" xmlns="http://www.w3.org/2000/svg">
<path d="M4.5 6.5C4.77614 6.5 5 6.27614 5 6C5 5.72386 4.77614 5.5 4.5 5.5C4.22386 5.5 4 5.72386 4 6C4 6.27614 4.22386 6.5 4.5 6.5Z" fill="#666666" stroke="#666666" strokeLinecap="round" strokeLinejoin="round"/>
<path d="M8 6.5C8.27614 6.5 8.5 6.27614 8.5 6C8.5 5.72386 8.27614 5.5 8 5.5C7.72386 5.5 7.5 5.72386 7.5 6C7.5 6.27614 7.72386 6.5 8 6.5Z" fill="#666666" stroke="#666666" strokeLinecap="round" strokeLinejoin="round"/>
<path d="M4.5 3C4.77614 3 5 2.77614 5 2.5C5 2.22386 4.77614 2 4.5 2C4.22386 2 4 2.22386 4 2.5C4 2.77614 4.22386 3 4.5 3Z" fill="#666666" stroke="#666666" strokeLinecap="round" strokeLinejoin="round"/>
<path d="M8 3C8.27614 3 8.5 2.77614 8.5 2.5C8.5 2.22386 8.27614 2 8 2C7.72386 2 7.5 2.22386 7.5 2.5C7.5 2.77614 7.72386 3 8 3Z" fill="#666666" stroke="#666666" strokeLinecap="round" strokeLinejoin="round"/>
<path d="M4.5 10C4.77614 10 5 9.77614 5 9.5C5 9.22386 4.77614 9 4.5 9C4.22386 9 4 9.22386 4 9.5C4 9.77614 4.22386 10 4.5 10Z" fill="#666666" stroke="#666666" strokeLinecap="round" strokeLinejoin="round"/>
<path d="M8 10C8.27614 10 8.5 9.77614 8.5 9.5C8.5 9.22386 8.27614 9 8 9C7.72386 9 7.5 9.22386 7.5 9.5C7.5 9.77614 7.72386 10 8 10Z" fill="#666666" stroke="#666666" strokeLinecap="round" strokeLinejoin="round"/>
</svg>
