
<svg width="138" height="134" viewBox="0 0 138 134" fill="none" xmlns="http://www.w3.org/2000/svg">
<path opacity="0.12" fill-rule="evenodd" clip-rule="evenodd" d="M94.8781 34.8829C106.111 43.6454 122.407 48.5835 124.47 62.7188C126.651 77.6721 116.385 91.6133 104.529 101.033C93.5821 109.729 79.4589 111.232 65.6436 109.452C51.0118 107.567 35.8753 103.496 27.8141 91.1478C19.1234 77.8355 18.7414 60.8859 24.1279 45.8586C29.8741 29.8283 40.1101 12.6124 56.8989 10.0079C72.6718 7.56103 82.3242 25.0898 94.8781 34.8829Z" fill="#E98A36"/>
<path d="M8.09912 58.2139V63.8933" stroke="#E98A36" strokeLinecap="round" strokeLinejoin="round"/>
<path d="M10.9385 61.0537L5.25905 61.0537" stroke="#E98A36" strokeLinecap="round" strokeLinejoin="round"/>
<path d="M106.069 19.8779V25.5574" stroke="#E98A36" strokeLinecap="round" strokeLinejoin="round"/>
<path d="M108.909 22.7178L103.229 22.7178" stroke="#E98A36" strokeLinecap="round" strokeLinejoin="round"/>
<path d="M108.84 110V115.679" stroke="#E98A36" strokeLinecap="round" strokeLinejoin="round"/>
<path d="M111.679 112.84L106 112.84" stroke="#E98A36" strokeLinecap="round" strokeLinejoin="round"/>
<path d="M73.0787 47L94 56.377L66.9913 64L46 53.746L73.0787 47Z" fill="#E0CFB5"/>
<path d="M73 47V75.7628L93.8595 84L94 56.385L73 47Z" fill="#CFB594"/>
<path d="M73.0787 47L94 56.377L67.0612 64L46 53.746L73.0787 47Z" fill="url(#paint0_linear)"/>
<path d="M73 47V75.7628L94 84V56.385L73 47Z" fill="url(#paint1_linear)"/>
<path d="M94 84.5174L67 94V63.8789L94 56V84.5174Z" fill="url(#paint2_linear)"/>
<path d="M46 54V81.3973L67 94V64.411L46 54Z" fill="url(#paint3_linear)"/>
<path d="M46.4818 54L73 47.0769L67.9293 45L41 51.7154L46.4818 54Z" fill="url(#paint4_linear)"/>
<path d="M93.542 57L73 47.3228L79.2519 46L100 55.6772L93.542 57Z" fill="url(#paint5_linear)"/>
<path d="M67 64.2131V65L63.7907 73L46 64.2131V61L67 64.2131Z" fill="#C7874E"/>
<path d="M67 63.9396V64.745L70.5065 73L94 65.7517V63L67 63.9396Z" fill="#C7874E"/>
<path d="M67 63.913L46.108 54L40 58.5652L60.6838 69L67 63.913Z" fill="url(#paint6_linear)"/>
<path d="M93.6912 56L67 63.91L72.8235 70L100 61.25L93.6912 56Z" fill="url(#paint7_linear)"/>
<defs>
<linearGradient id="paint0_linear" x1="47.5" y1="49.5" x2="82" y2="71.5" gradientUnits="userSpaceOnUse">
<stop stop-color="#FFCC9E"/>
<stop offset="0.0001" stop-color="#F7B275"/>
<stop offset="1" stop-color="#FEDAB7"/>
</linearGradient>
<linearGradient id="paint1_linear" x1="73" y1="47" x2="125.452" y2="66.1773" gradientUnits="userSpaceOnUse">
<stop stop-color="#FFC693"/>
<stop offset="0.0001" stop-color="#FFB471"/>
<stop offset="1" stop-color="#FFE296"/>
</linearGradient>
<linearGradient id="paint2_linear" x1="58" y1="64.5" x2="96.4721" y2="71.5948" gradientUnits="userSpaceOnUse">
<stop stop-color="#FFCDA1"/>
<stop offset="0.0001" stop-color="#F2994A"/>
<stop offset="1" stop-color="#FFDDBD"/>
</linearGradient>
<linearGradient id="paint3_linear" x1="39.5" y1="82" x2="52.2895" y2="60.6768" gradientUnits="userSpaceOnUse">
<stop stop-color="#F6AD6B"/>
<stop offset="0.0001" stop-color="#F2994A"/>
<stop offset="1" stop-color="#FED9B6"/>
</linearGradient>
<linearGradient id="paint4_linear" x1="67" y1="54" x2="65.2723" y2="44.6714" gradientUnits="userSpaceOnUse">
<stop stop-color="#F7B275"/>
<stop offset="0.0001" stop-color="#FFBD82"/>
<stop offset="1" stop-color="#FED9B6"/>
</linearGradient>
<linearGradient id="paint5_linear" x1="81.5" y1="45" x2="84.5362" y2="60.1077" gradientUnits="userSpaceOnUse">
<stop stop-color="#F7B275"/>
<stop offset="0.0001" stop-color="#F2994A"/>
<stop offset="1" stop-color="#FFDAB9"/>
</linearGradient>
<linearGradient id="paint6_linear" x1="40.675" y1="54.375" x2="53.0925" y2="76.7264" gradientUnits="userSpaceOnUse">
<stop stop-color="#F7B375"/>
<stop offset="0.0001" stop-color="#F2994A"/>
<stop offset="1" stop-color="#FFDBB9"/>
</linearGradient>
<linearGradient id="paint7_linear" x1="67.825" y1="56.35" x2="71.5987" y2="68.1471" gradientUnits="userSpaceOnUse">
<stop stop-color="#F4A660"/>
<stop offset="0.0001" stop-color="#F2994A"/>
<stop offset="1" stop-color="#FEDAB8"/>
</linearGradient>
</defs>
</svg>
