<svg width="14" height="14" viewBox="0 0 18 18" fill="none" xmlns="http://www.w3.org/2000/svg">
<g clip-path="url(#clip0)">
<rect width="1440" height="999" transform="translate(-1332 -43)"/>
<path d="M-178.5 -4C-178.5 -5.933 -176.933 -7.5 -175 -7.5H34C35.933 -7.5 37.5 -5.933 37.5 -4V24C37.5 25.933 35.933 27.5 34 27.5H-175C-176.933 27.5 -178.5 25.933 -178.5 24V-4Z" stroke="#212121"/>
<path d="M0.75 9C0.75 9 3.75 3 9 3C14.25 3 17.25 9 17.25 9C17.25 9 14.25 15 9 15C3.75 15 0.75 9 0.75 9Z" stroke="#212121" strokeWidth="1.5" strokeLinecap="round" strokeLinejoin="round"/>
<path d="M9 11.25C10.2426 11.25 11.25 10.2426 11.25 9C11.25 7.75736 10.2426 6.75 9 6.75C7.75736 6.75 6.75 7.75736 6.75 9C6.75 10.2426 7.75736 11.25 9 11.25Z" stroke="#212121" strokeWidth="1.5" strokeLinecap="round" strokeLinejoin="round"/>
</g>
<defs>
<clipPath id="clip0">
<rect width="1440" height="999" transform="translate(-1332 -43)"/>
</clipPath>
</defs>
</svg>