<svg width="14" height="14" viewBox="0 0 14 14" fill="none" xmlns="http://www.w3.org/2000/svg">
<g opacity="0.3">
<path d="M7.0013 1.16669C3.7813 1.16669 1.16797 3.78002 1.16797 7.00002C1.16797 10.22 3.7813 12.8334 7.0013 12.8334C10.2213 12.8334 12.8346 10.22 12.8346 7.00002C12.8346 3.78002 10.2213 1.16669 7.0013 1.16669ZM6.41797 11.6259C4.1138 11.34 2.33464 9.38002 2.33464 7.00002C2.33464 6.63835 2.3813 6.29419 2.45714 5.95585L5.2513 8.75002V9.33335C5.2513 9.97502 5.7763 10.5 6.41797 10.5V11.6259ZM10.443 10.1442C10.2913 9.67168 9.85964 9.33335 9.33464 9.33335H8.7513V7.58335C8.7513 7.26252 8.4888 7.00002 8.16797 7.00002H4.66797V5.83335H5.83464C6.15547 5.83335 6.41797 5.57085 6.41797 5.25002V4.08335H7.58464C8.2263 4.08335 8.7513 3.55835 8.7513 2.91669V2.67752C10.4605 3.37169 11.668 5.04585 11.668 7.00002C11.668 8.21335 11.2013 9.31585 10.443 10.1442Z" fill="#212121"/>
</g>
</svg>
