<svg width="82" height="44" viewBox="0 0 82 44" fill="none" xmlns="http://www.w3.org/2000/svg">
<g filter="url(#filter0_d_7302_13064)">
<rect x="4" y="4" width="74" height="36" rx="2" fill="white"/>
</g>
<path d="M47.1641 25.0801V26H42.8984V25.0801H47.1641ZM43.1211 17.4688V26H41.9902V17.4688H43.1211ZM49.4727 19.6602V26H48.3828V19.6602H49.4727ZM48.3008 17.9785C48.3008 17.8027 48.3535 17.6543 48.459 17.5332C48.5684 17.4121 48.7285 17.3516 48.9395 17.3516C49.1465 17.3516 49.3047 17.4121 49.4141 17.5332C49.5273 17.6543 49.584 17.8027 49.584 17.9785C49.584 18.1465 49.5273 18.291 49.4141 18.4121C49.3047 18.5293 49.1465 18.5879 48.9395 18.5879C48.7285 18.5879 48.5684 18.5293 48.459 18.4121C48.3535 18.291 48.3008 18.1465 48.3008 17.9785ZM52.3027 17V26H51.2129V17H52.3027ZM56.1758 19.6602L53.4102 22.6191L51.8633 24.2246L51.7754 23.0703L52.8828 21.7461L54.8516 19.6602H56.1758ZM55.1855 26L52.9238 22.9766L53.4863 22.0098L56.4629 26H55.1855ZM59.8086 26.1172C59.3672 26.1172 58.9668 26.043 58.6074 25.8945C58.252 25.7422 57.9453 25.5293 57.6875 25.2559C57.4336 24.9824 57.2383 24.6582 57.1016 24.2832C56.9648 23.9082 56.8965 23.498 56.8965 23.0527V22.8066C56.8965 22.291 56.9727 21.832 57.125 21.4297C57.2773 21.0234 57.4844 20.6797 57.7461 20.3984C58.0078 20.1172 58.3047 19.9043 58.6367 19.7598C58.9688 19.6152 59.3125 19.543 59.668 19.543C60.1211 19.543 60.5117 19.6211 60.8398 19.7773C61.1719 19.9336 61.4434 20.1523 61.6543 20.4336C61.8652 20.7109 62.0215 21.0391 62.123 21.418C62.2246 21.793 62.2754 22.2031 62.2754 22.6484V23.1348H57.541V22.25H61.1914V22.168C61.1758 21.8867 61.1172 21.6133 61.0156 21.3477C60.918 21.082 60.7617 20.8633 60.5469 20.6914C60.332 20.5195 60.0391 20.4336 59.668 20.4336C59.4219 20.4336 59.1953 20.4863 58.9883 20.5918C58.7812 20.6934 58.6035 20.8457 58.4551 21.0488C58.3066 21.252 58.1914 21.5 58.1094 21.793C58.0273 22.0859 57.9863 22.4238 57.9863 22.8066V23.0527C57.9863 23.3535 58.0273 23.6367 58.1094 23.9023C58.1953 24.1641 58.3184 24.3945 58.4785 24.5938C58.6426 24.793 58.8398 24.9492 59.0703 25.0625C59.3047 25.1758 59.5703 25.2324 59.8672 25.2324C60.25 25.2324 60.5742 25.1543 60.8398 24.998C61.1055 24.8418 61.3379 24.6328 61.5371 24.3711L62.1934 24.8926C62.0566 25.0996 61.8828 25.2969 61.6719 25.4844C61.4609 25.6719 61.2012 25.8242 60.8926 25.9414C60.5879 26.0586 60.2266 26.1172 59.8086 26.1172Z" fill="#212121"/>
<path d="M22.0833 27.8332H20.3333C20.0239 27.8332 19.7271 27.7103 19.5083 27.4915C19.2895 27.2727 19.1666 26.9759 19.1666 26.6665V22.5832C19.1666 22.2738 19.2895 21.977 19.5083 21.7582C19.7271 21.5394 20.0239 21.4165 20.3333 21.4165H22.0833M26.1666 20.2498V17.9165C26.1666 17.4524 25.9823 17.0073 25.6541 16.6791C25.3259 16.3509 24.8808 16.1665 24.4166 16.1665L22.0833 21.4165V27.8332H28.6633C28.9447 27.8364 29.2177 27.7377 29.4321 27.5555C29.6465 27.3733 29.7878 27.1197 29.83 26.8415L30.635 21.5915C30.6603 21.4243 30.6491 21.2536 30.6019 21.0912C30.5548 20.9287 30.4729 20.7785 30.3619 20.6509C30.2509 20.5233 30.1135 20.4213 29.9592 20.352C29.8049 20.2828 29.6374 20.2479 29.4683 20.2498H26.1666Z" stroke="#212121" strokeLinecap="round" strokeLinejoin="round"/>
<defs>
<filter id="filter0_d_7302_13064" x="0" y="0" width="82" height="44" filterUnits="userSpaceOnUse" color-interpolation-filters="sRGB">
<feFlood flood-opacity="0" result="BackgroundImageFix"/>
<feColorMatrix in="SourceAlpha" type="matrix" values="0 0 0 0 0 0 0 0 0 0 0 0 0 0 0 0 0 0 127 0" result="hardAlpha"/>
<feOffset/>
<feGaussianBlur stdDeviation="2"/>
<feComposite in2="hardAlpha" operator="out"/>
<feColorMatrix type="matrix" values="0 0 0 0 0 0 0 0 0 0 0 0 0 0 0 0 0 0 0.16 0"/>
<feBlend mode="normal" in2="BackgroundImageFix" result="effect1_dropShadow_7302_13064"/>
<feBlend mode="normal" in="SourceGraphic" in2="effect1_dropShadow_7302_13064" result="shape"/>
</filter>
</defs>
</svg>
