<svg width="416" height="416" viewBox="0 0 416 416" fill="none" xmlns="http://www.w3.org/2000/svg">
<path d="M62.8171 333.466C62.4843 333.466 62.2347 333.382 61.9851 333.133C61.7355 332.883 61.6523 332.634 61.6523 332.301C61.6523 332.218 61.6523 332.134 61.6523 332.051C61.6523 331.968 61.6523 331.885 61.7355 331.802C61.7355 331.718 61.8187 331.635 61.8187 331.635C61.9019 331.552 61.9019 331.552 61.9851 331.469C62.0683 331.386 62.0683 331.386 62.1515 331.302C62.2347 331.302 62.2347 331.219 62.3179 331.219C62.4011 331.219 62.4843 331.136 62.5675 331.136C62.7339 331.136 62.9003 331.136 62.9835 331.136C63.0667 331.136 63.1499 331.136 63.2331 331.219C63.3163 331.219 63.3995 331.302 63.3995 331.302C63.4827 331.386 63.4827 331.386 63.5659 331.469C63.6491 331.552 63.6491 331.552 63.7323 331.635C63.7323 331.718 63.8155 331.718 63.8155 331.802C63.8155 331.885 63.8987 331.968 63.8987 332.051C63.8987 332.134 63.8987 332.218 63.8987 332.301C63.8987 332.634 63.8155 332.883 63.5659 333.133C63.3995 333.299 63.1499 333.466 62.8171 333.466Z" fill="#EBB393"/>
<path d="M309.839 331.053C309.506 330.554 309.673 329.805 310.255 329.555C310.754 329.222 311.503 329.472 311.753 329.971C312.085 330.47 311.836 331.219 311.337 331.469C311.17 331.552 311.004 331.635 310.754 331.635C310.421 331.635 310.089 331.469 309.839 331.053ZM58.2422 328.224C57.9094 327.725 57.9926 326.976 58.575 326.643C59.0742 326.31 59.823 326.394 60.1558 326.976C60.4886 327.475 60.4054 328.224 59.823 328.557C59.6566 328.723 59.407 328.723 59.1574 328.723C58.8246 328.723 58.4086 328.474 58.2422 328.224ZM314.997 328.058C314.665 327.558 314.831 326.81 315.33 326.477C315.829 326.144 316.578 326.31 316.911 326.81C317.244 327.309 317.077 328.058 316.578 328.39C316.412 328.474 316.162 328.557 315.996 328.557C315.58 328.557 315.247 328.39 314.997 328.058ZM319.989 324.646C319.657 324.147 319.74 323.482 320.239 323.066C320.738 322.733 321.404 322.816 321.82 323.315C322.153 323.814 322.069 324.48 321.57 324.896C321.404 325.062 321.154 325.146 320.905 325.146C320.572 325.146 320.239 324.979 319.989 324.646ZM55.0806 322.899C54.831 322.317 54.9974 321.651 55.5798 321.402C56.1622 321.069 56.8278 321.318 57.0774 321.901C57.327 322.483 57.1606 323.149 56.5782 323.398C56.4118 323.482 56.2454 323.565 56.079 323.565C55.663 323.565 55.247 323.315 55.0806 322.899ZM324.815 321.069C324.399 320.57 324.482 319.904 324.981 319.488C325.481 319.072 326.146 319.155 326.562 319.654C326.978 320.154 326.895 320.819 326.396 321.235C326.146 321.402 325.98 321.485 325.73 321.485C325.397 321.485 325.065 321.318 324.815 321.069ZM52.5014 317.325C52.2518 316.742 52.5846 316.077 53.167 315.827C53.7494 315.578 54.415 315.91 54.5814 316.493C54.831 317.075 54.4982 317.741 53.9158 317.907C53.7494 317.99 53.6662 317.99 53.4998 317.99C53.0838 318.074 52.6678 317.824 52.5014 317.325ZM329.474 317.242C329.058 316.826 329.141 316.077 329.557 315.661C330.057 315.245 330.722 315.328 331.138 315.744C331.554 316.16 331.471 316.909 331.055 317.325C330.805 317.491 330.556 317.574 330.306 317.574C329.973 317.574 329.641 317.491 329.474 317.242ZM333.884 313.165C333.468 312.749 333.468 312 333.884 311.584C334.3 311.168 335.049 311.168 335.465 311.584C335.881 312 335.881 312.749 335.465 313.165C335.215 313.414 334.965 313.498 334.633 313.498C334.383 313.498 334.05 313.414 333.884 313.165ZM50.5878 311.584C50.4214 311.002 50.7542 310.336 51.3366 310.17C51.919 310.003 52.5846 310.336 52.751 310.918C52.9174 311.501 52.5846 312.166 52.0022 312.333C51.919 312.333 51.8358 312.416 51.6694 312.416C51.1702 312.416 50.7542 312.083 50.5878 311.584ZM338.044 308.838C337.545 308.422 337.545 307.674 337.961 307.258C338.377 306.842 339.125 306.758 339.541 307.174C339.957 307.59 340.041 308.339 339.625 308.755C339.375 309.005 339.125 309.088 338.793 309.088C338.543 309.171 338.293 309.088 338.044 308.838ZM49.2566 305.594C49.1734 305.011 49.5894 304.429 50.1718 304.346C50.7542 304.262 51.3366 304.678 51.503 305.261C51.5862 305.843 51.1702 306.426 50.5878 306.592C50.5046 306.592 50.5046 306.592 50.4214 306.592C49.839 306.509 49.3398 306.093 49.2566 305.594ZM342.037 304.346C341.538 303.93 341.455 303.264 341.871 302.765C342.287 302.266 342.953 302.266 343.452 302.598C343.951 303.014 344.034 303.68 343.618 304.179C343.369 304.429 343.119 304.595 342.786 304.595C342.537 304.595 342.287 304.512 342.037 304.346ZM48.591 299.52C48.591 298.938 49.007 298.355 49.6726 298.355C50.255 298.355 50.8374 298.771 50.8374 299.437C50.8374 300.019 50.4214 300.602 49.7558 300.602H49.6726C49.0902 300.518 48.6742 300.102 48.591 299.52ZM345.781 299.686C345.282 299.354 345.199 298.605 345.532 298.106C345.865 297.606 346.613 297.523 347.113 297.856C347.612 298.189 347.695 298.938 347.362 299.437C347.113 299.77 346.78 299.853 346.447 299.853C346.281 299.936 346.031 299.853 345.781 299.686ZM349.359 294.861C348.86 294.528 348.693 293.779 349.026 293.28C349.359 292.781 350.108 292.614 350.607 292.947C351.106 293.28 351.273 294.029 350.94 294.528C350.69 294.861 350.357 295.027 350.025 295.027C349.775 295.027 349.525 294.944 349.359 294.861ZM49.5894 294.528C49.007 294.528 48.5078 293.946 48.5078 293.363C48.5078 292.781 49.0902 292.282 49.6726 292.282C50.255 292.282 50.7542 292.864 50.7542 293.446C50.7542 294.029 50.255 294.528 49.5894 294.528C49.6726 294.528 49.6726 294.528 49.5894 294.528ZM352.604 289.786C352.105 289.453 351.938 288.787 352.188 288.205C352.521 287.706 353.186 287.539 353.769 287.789C354.268 288.122 354.434 288.787 354.185 289.37C353.935 289.702 353.602 289.952 353.186 289.952C353.02 289.952 352.77 289.869 352.604 289.786ZM50.0886 288.538C49.5062 288.454 49.0902 287.872 49.1734 287.29C49.2566 286.707 49.839 286.291 50.4214 286.374C51.0038 286.458 51.4198 287.04 51.3366 287.622C51.2534 288.205 50.7542 288.538 50.255 288.538C50.1718 288.538 50.1718 288.538 50.0886 288.538ZM355.682 284.627C355.1 284.294 354.933 283.629 355.266 283.13C355.599 282.547 356.265 282.381 356.764 282.714C357.263 283.046 357.513 283.712 357.18 284.211C356.93 284.544 356.597 284.794 356.181 284.794C356.015 284.71 355.849 284.71 355.682 284.627ZM51.1702 282.63C50.5878 282.464 50.255 281.882 50.4214 281.216C50.5878 280.634 51.1702 280.301 51.8358 280.384C52.4182 280.55 52.8342 281.133 52.6678 281.798C52.5014 282.298 52.0854 282.63 51.5862 282.63C51.4198 282.714 51.3366 282.63 51.1702 282.63ZM358.428 279.302C357.845 279.053 357.596 278.387 357.929 277.805C358.178 277.222 358.844 276.973 359.426 277.306C360.009 277.555 360.258 278.221 359.925 278.803C359.759 279.219 359.343 279.469 358.927 279.469C358.761 279.386 358.594 279.302 358.428 279.302ZM53.0006 276.89C52.4182 276.64 52.1686 275.974 52.335 275.392C52.5846 274.81 53.2502 274.56 53.8326 274.726C54.415 274.976 54.6646 275.642 54.4982 276.224C54.3318 276.64 53.9158 276.973 53.4166 276.973C53.2502 276.973 53.0838 276.973 53.0006 276.89ZM360.924 273.811C360.341 273.562 360.092 272.896 360.341 272.314C360.591 271.731 361.257 271.482 361.839 271.731C362.421 271.981 362.671 272.646 362.421 273.229C362.255 273.645 361.839 273.894 361.34 273.894C361.173 273.894 361.007 273.894 360.924 273.811ZM55.4134 271.398C54.9142 271.066 54.6646 270.4 54.9974 269.901C55.3302 269.318 55.9958 269.152 56.495 269.485C57.0774 269.818 57.2438 270.483 56.911 270.982C56.7446 271.315 56.3286 271.565 55.9126 271.565C55.7462 271.565 55.5798 271.482 55.4134 271.398ZM363.087 268.237C362.505 267.987 362.172 267.405 362.421 266.822C362.671 266.24 363.253 265.907 363.836 266.157C364.418 266.323 364.751 266.989 364.501 267.571C364.335 268.07 363.919 268.32 363.42 268.32C363.337 268.237 363.253 268.237 363.087 268.237ZM58.4086 266.24C57.9094 265.907 57.743 265.158 58.0758 264.659C58.4086 264.16 59.1574 263.994 59.6566 264.326C60.1558 264.659 60.3222 265.408 59.9894 265.907C59.7398 266.24 59.407 266.406 59.0742 266.406C58.8246 266.406 58.575 266.323 58.4086 266.24ZM365.001 262.496C364.418 262.33 364.085 261.664 364.252 261.082C364.418 260.499 365.084 260.166 365.666 260.333C366.249 260.499 366.581 261.165 366.415 261.747C366.249 262.246 365.833 262.579 365.333 262.579C365.25 262.579 365.167 262.579 365.001 262.496ZM61.903 261.331C61.4038 260.915 61.3206 260.25 61.7366 259.75C62.1526 259.251 62.8182 259.168 63.3174 259.584C63.8166 260 63.8998 260.666 63.4838 261.165C63.2342 261.498 62.9014 261.581 62.5686 261.581C62.319 261.581 62.0694 261.498 61.903 261.331ZM65.647 256.589C65.1478 256.173 65.1478 255.507 65.4806 255.008C65.8966 254.509 66.5622 254.509 67.0614 254.842C67.5606 255.258 67.5606 255.923 67.2278 256.422C66.9782 256.672 66.7286 256.838 66.3958 256.838C66.063 256.922 65.8134 256.755 65.647 256.589ZM366.665 256.755C366.082 256.589 365.666 256.006 365.833 255.424C365.999 254.842 366.581 254.426 367.164 254.592C367.746 254.758 368.162 255.341 367.996 255.923C367.829 256.422 367.413 256.755 366.914 256.755C366.831 256.755 366.748 256.755 366.665 256.755ZM69.5574 252.096C69.1414 251.68 69.0582 251.014 69.4742 250.515C69.8902 250.016 70.5558 250.016 71.055 250.432C71.5542 250.848 71.5542 251.514 71.1382 252.013C70.8886 252.262 70.639 252.429 70.3062 252.429C70.0566 252.346 69.807 252.262 69.5574 252.096ZM367.996 250.848C367.413 250.765 366.997 250.182 367.081 249.517C367.164 248.934 367.746 248.518 368.412 248.602C368.994 248.685 369.41 249.267 369.327 249.933C369.244 250.515 368.745 250.848 368.245 250.848C368.162 250.931 368.079 250.848 367.996 250.848ZM73.551 247.603C73.0518 247.187 73.0518 246.522 73.4678 246.022C73.8838 245.523 74.5494 245.523 75.0486 245.939C75.5478 246.355 75.5478 247.021 75.1318 247.52C74.8822 247.77 74.6326 247.936 74.2998 247.936C74.0502 247.853 73.8006 247.77 73.551 247.603ZM368.994 244.941C368.412 244.858 367.913 244.275 367.996 243.693C368.079 243.11 368.661 242.611 369.244 242.694C369.826 242.778 370.325 243.36 370.242 243.942C370.159 244.525 369.66 244.941 369.161 244.941C369.077 244.941 369.077 244.941 368.994 244.941ZM77.5446 243.11C77.0454 242.694 77.0454 242.029 77.3782 241.53C77.7942 241.03 78.4598 241.03 78.959 241.363C79.4582 241.779 79.4582 242.445 79.1254 242.944C78.8758 243.194 78.6262 243.36 78.2934 243.36C77.9606 243.36 77.711 243.277 77.5446 243.11ZM369.66 238.95C369.077 238.867 368.578 238.368 368.661 237.786C368.745 237.203 369.244 236.704 369.826 236.787C370.409 236.87 370.908 237.37 370.908 237.952C370.825 238.534 370.409 238.95 369.826 238.95C369.743 238.95 369.66 238.95 369.66 238.95ZM81.2886 238.451C80.7894 238.118 80.7062 237.37 81.039 236.87C81.3718 236.371 82.1206 236.288 82.6198 236.621C83.119 236.954 83.2022 237.702 82.8694 238.202C82.6198 238.534 82.287 238.618 81.9542 238.618C81.7878 238.618 81.5382 238.534 81.2886 238.451ZM84.783 233.542C84.2838 233.21 84.1174 232.544 84.4502 231.962C84.783 231.462 85.4486 231.296 86.031 231.629C86.5302 231.962 86.6966 232.627 86.3638 233.21C86.1142 233.542 85.7814 233.709 85.4486 233.709C85.199 233.709 85.0326 233.626 84.783 233.542ZM369.993 232.96C369.41 232.96 368.911 232.461 368.911 231.795C368.911 231.213 369.41 230.714 370.076 230.714C370.658 230.714 371.157 231.213 371.157 231.878C371.157 232.461 370.658 232.96 369.993 232.96ZM87.9446 228.384C87.3622 228.134 87.1958 227.386 87.4454 226.886C87.7782 226.304 88.4438 226.138 88.943 226.387C89.5254 226.72 89.6918 227.386 89.4422 227.885C89.2758 228.301 88.8598 228.467 88.4438 228.467C88.2774 228.55 88.111 228.467 87.9446 228.384ZM368.911 225.888C368.911 225.306 369.41 224.723 369.993 224.723C370.575 224.723 371.157 225.222 371.157 225.805C371.157 226.387 370.658 226.97 370.076 226.97C369.41 226.97 368.911 226.47 368.911 225.888ZM90.5238 222.976C89.9414 222.726 89.6086 222.144 89.8582 221.562C90.1078 220.979 90.6902 220.646 91.2726 220.896C91.855 221.146 92.1046 221.728 91.9382 222.31C91.7718 222.726 91.3558 223.059 90.8566 223.059C90.7734 223.059 90.607 222.976 90.5238 222.976ZM368.578 219.981C368.495 219.398 368.994 218.816 369.577 218.816C370.159 218.733 370.741 219.232 370.825 219.814C370.908 220.397 370.409 220.979 369.826 221.062H369.743C369.077 220.979 368.578 220.563 368.578 219.981ZM92.3542 217.235C91.7718 217.069 91.3558 216.486 91.5222 215.904C91.6886 215.322 92.271 214.906 92.8534 215.072C93.4358 215.238 93.8518 215.821 93.6854 216.403C93.6022 216.902 93.103 217.318 92.6038 217.318C92.5206 217.318 92.4374 217.235 92.3542 217.235ZM367.913 213.99C367.829 213.408 368.245 212.826 368.911 212.742C369.493 212.659 370.076 213.075 370.159 213.741C370.242 214.323 369.826 214.906 369.161 214.989C369.077 214.989 369.077 214.989 368.994 214.989C368.495 214.989 367.996 214.573 367.913 213.99ZM93.3526 211.328C92.7702 211.328 92.271 210.746 92.271 210.163C92.271 209.581 92.8534 209.082 93.4358 209.082C94.0182 209.082 94.5174 209.664 94.5174 210.246C94.5174 210.829 94.0182 211.328 93.3526 211.328ZM366.997 208.166C366.914 207.584 367.247 207.002 367.913 206.835C368.495 206.752 369.077 207.085 369.244 207.75C369.327 208.333 368.994 208.915 368.329 209.082C368.245 209.082 368.162 209.082 368.162 209.082C367.497 209.082 367.081 208.666 366.997 208.166ZM91.9382 204.422C91.855 203.84 92.271 203.258 92.8534 203.174C93.4358 203.091 94.0182 203.507 94.1014 204.09C94.1846 204.672 93.7686 205.254 93.1862 205.338C93.103 205.338 93.103 205.338 93.0198 205.338C92.5206 205.338 92.0214 204.922 91.9382 204.422ZM365.749 202.342C365.583 201.76 365.999 201.178 366.581 201.011C367.164 200.845 367.829 201.261 367.913 201.843C368.079 202.426 367.663 203.091 367.081 203.174C366.997 203.174 366.914 203.174 366.831 203.174C366.332 203.174 365.833 202.842 365.749 202.342ZM90.5238 198.765C90.3574 198.182 90.607 197.517 91.1894 197.35C91.7718 197.184 92.4374 197.434 92.6038 198.016C92.7702 198.598 92.5206 199.264 91.9382 199.43C91.855 199.43 91.6886 199.514 91.6054 199.514C91.1894 199.514 90.6902 199.264 90.5238 198.765ZM364.169 196.602C364.002 196.019 364.335 195.354 364.917 195.187C365.5 195.021 366.165 195.354 366.332 195.936C366.498 196.518 366.165 197.184 365.583 197.35C365.5 197.35 365.333 197.434 365.25 197.434C364.751 197.434 364.335 197.101 364.169 196.602ZM88.2774 193.44C88.0278 192.858 88.1942 192.192 88.7766 191.942C89.359 191.693 90.0246 191.859 90.2742 192.442C90.5238 193.024 90.3574 193.69 89.775 193.939C89.6086 194.022 89.4422 194.106 89.2758 194.106C88.8598 194.022 88.4438 193.773 88.2774 193.44ZM362.338 190.944C362.172 190.362 362.421 189.696 363.004 189.53C363.586 189.363 364.252 189.613 364.418 190.195C364.585 190.778 364.335 191.443 363.753 191.61C363.669 191.61 363.503 191.693 363.42 191.693C363.004 191.693 362.505 191.36 362.338 190.944ZM85.2822 188.282C84.9494 187.782 85.1158 187.034 85.615 186.701C86.1142 186.368 86.863 186.534 87.1958 187.034C87.5286 187.533 87.3622 188.282 86.863 188.614C86.6966 188.781 86.447 188.781 86.2806 188.781C85.8646 188.864 85.5318 188.614 85.2822 188.282ZM360.258 185.37C360.009 184.787 360.341 184.122 360.841 183.872C361.423 183.622 362.089 183.955 362.338 184.454C362.588 185.037 362.255 185.702 361.756 185.952C361.589 186.035 361.506 186.035 361.34 186.035C360.924 186.035 360.508 185.786 360.258 185.37ZM81.871 183.456C81.5382 182.957 81.6214 182.291 82.1206 181.875C82.6198 181.542 83.2854 181.626 83.7014 182.125C84.0342 182.624 83.951 183.29 83.4518 183.706C83.2854 183.872 83.0358 183.955 82.7862 183.955C82.4534 183.872 82.1206 183.789 81.871 183.456ZM357.929 179.878C357.679 179.296 357.929 178.63 358.511 178.381C359.093 178.131 359.759 178.381 360.009 178.963C360.258 179.546 360.009 180.211 359.426 180.461C359.26 180.544 359.093 180.544 358.927 180.544C358.511 180.544 358.095 180.294 357.929 179.878ZM78.2102 178.714C77.7942 178.214 77.8774 177.549 78.3766 177.133C78.8758 176.717 79.5414 176.8 79.9574 177.299C80.3734 177.798 80.2902 178.464 79.791 178.88C79.5414 179.046 79.375 179.13 79.1254 179.13C78.7926 179.13 78.4598 178.963 78.2102 178.714ZM355.349 174.554C355.017 173.971 355.266 173.306 355.849 173.056C356.431 172.723 357.097 172.973 357.346 173.555C357.679 174.138 357.429 174.803 356.847 175.053C356.681 175.136 356.514 175.219 356.348 175.219C355.932 175.136 355.516 174.886 355.349 174.554ZM74.4662 173.971C74.0502 173.472 74.1334 172.806 74.6326 172.39C75.1318 171.974 75.7974 172.058 76.2134 172.557C76.6294 173.056 76.5462 173.722 76.047 174.138C75.7974 174.304 75.631 174.387 75.3814 174.387C75.0486 174.47 74.7158 174.304 74.4662 173.971ZM352.437 169.312C352.105 168.813 352.271 168.064 352.853 167.814C353.353 167.482 354.101 167.648 354.351 168.23C354.684 168.73 354.517 169.478 353.935 169.728C353.769 169.811 353.602 169.894 353.353 169.894C353.02 169.894 352.604 169.728 352.437 169.312ZM70.8054 169.229C70.4726 168.73 70.5558 168.064 71.055 167.648C71.5542 167.315 72.2198 167.398 72.6358 167.898C72.9686 168.397 72.8854 169.062 72.3862 169.478C72.2198 169.645 71.9702 169.728 71.7206 169.728C71.3878 169.645 71.055 169.478 70.8054 169.229ZM349.276 164.32C348.943 163.821 349.109 163.072 349.609 162.739C350.108 162.406 350.857 162.573 351.189 163.072C351.522 163.571 351.356 164.32 350.857 164.653C350.69 164.819 350.441 164.819 350.274 164.819C349.858 164.819 349.442 164.57 349.276 164.32ZM67.3942 164.237C67.0614 163.738 67.2278 162.989 67.727 162.656C68.2262 162.323 68.975 162.49 69.3078 162.989C69.6406 163.488 69.4742 164.237 68.975 164.57C68.8086 164.653 68.559 164.736 68.3926 164.736C67.9766 164.736 67.5606 164.57 67.3942 164.237ZM345.865 159.411C345.532 158.912 345.615 158.246 346.114 157.83C346.613 157.498 347.279 157.581 347.695 158.08C348.028 158.579 347.945 159.245 347.445 159.661C347.279 159.827 347.029 159.91 346.78 159.91C346.447 159.827 346.114 159.661 345.865 159.411ZM64.3158 158.912C64.0662 158.33 64.2326 157.664 64.815 157.414C65.3974 157.165 66.063 157.331 66.3126 157.914C66.5622 158.496 66.3958 159.162 65.8134 159.411C65.647 159.494 65.4806 159.578 65.3142 159.578C64.8982 159.494 64.4822 159.328 64.3158 158.912ZM342.204 154.669C341.788 154.17 341.871 153.504 342.37 153.088C342.869 152.672 343.535 152.755 343.951 153.254C344.367 153.754 344.284 154.419 343.785 154.835C343.535 155.002 343.285 155.085 343.036 155.085C342.786 155.085 342.453 155.002 342.204 154.669ZM61.7366 153.421C61.487 152.838 61.7366 152.173 62.319 151.923C62.9014 151.674 63.567 151.923 63.8166 152.506C64.0662 153.088 63.8166 153.754 63.2342 154.003C63.0678 154.086 62.9846 154.086 62.8182 154.086C62.319 154.086 61.903 153.837 61.7366 153.421ZM338.377 150.176C337.961 149.76 337.961 149.011 338.46 148.595C338.876 148.179 339.625 148.179 340.041 148.678C340.457 149.094 340.457 149.843 339.957 150.259C339.708 150.426 339.458 150.592 339.209 150.592C338.876 150.592 338.543 150.426 338.377 150.176ZM59.6566 147.68C59.4902 147.098 59.823 146.432 60.4054 146.266C60.9878 146.099 61.6534 146.432 61.8198 147.014C61.9862 147.597 61.6534 148.262 61.071 148.429C60.9878 148.429 60.8214 148.512 60.7382 148.512C60.239 148.429 59.7398 148.179 59.6566 147.68ZM334.217 145.933C333.801 145.517 333.801 144.768 334.217 144.352C334.633 143.936 335.381 143.936 335.797 144.352C336.213 144.768 336.213 145.517 335.797 145.933C335.548 146.182 335.298 146.266 334.965 146.266C334.716 146.182 334.466 146.099 334.217 145.933ZM57.9926 141.773C57.8262 141.19 58.2422 140.608 58.8246 140.442C59.407 140.275 59.9894 140.691 60.1558 141.274C60.3222 141.856 59.9062 142.438 59.3238 142.605C59.2406 142.605 59.1574 142.605 59.0742 142.605C58.575 142.688 58.0758 142.355 57.9926 141.773ZM329.89 141.856C329.391 141.44 329.391 140.774 329.807 140.275C330.223 139.776 330.889 139.776 331.388 140.192C331.887 140.608 331.887 141.274 331.471 141.773C331.221 142.022 330.972 142.189 330.639 142.189C330.389 142.106 330.14 142.022 329.89 141.856ZM325.314 137.946C324.815 137.53 324.815 136.864 325.148 136.365C325.564 135.866 326.229 135.866 326.729 136.198C327.228 136.614 327.228 137.28 326.895 137.779C326.645 138.029 326.396 138.195 326.063 138.195C325.813 138.195 325.564 138.112 325.314 137.946ZM56.8278 135.782C56.7446 135.2 57.1606 134.618 57.743 134.534C58.3254 134.451 58.9078 134.867 58.991 135.45C59.0742 136.032 58.6582 136.614 58.0758 136.698C57.9926 136.698 57.9926 136.698 57.9094 136.698C57.4102 136.781 56.911 136.365 56.8278 135.782ZM320.738 134.035C320.239 133.619 320.239 132.954 320.572 132.454C320.988 131.955 321.653 131.955 322.153 132.371C322.652 132.787 322.652 133.453 322.236 133.952C321.986 134.202 321.737 134.368 321.404 134.368C321.237 134.368 320.988 134.285 320.738 134.035ZM56.1622 129.709C56.079 129.126 56.5782 128.544 57.2438 128.544C57.8262 128.461 58.4086 128.96 58.4086 129.626C58.4086 130.208 57.9926 130.79 57.327 130.79H57.2438C56.7446 130.79 56.2454 130.291 56.1622 129.709ZM316.245 130.042C315.829 129.626 315.746 128.877 316.162 128.461C316.578 128.045 317.327 127.962 317.743 128.378C318.159 128.794 318.242 129.542 317.826 129.958C317.577 130.208 317.327 130.291 316.994 130.291C316.745 130.374 316.412 130.208 316.245 130.042ZM311.919 125.715C311.503 125.216 311.586 124.55 312.002 124.134C312.501 123.718 313.167 123.802 313.583 124.218C313.999 124.717 313.916 125.382 313.5 125.798C313.25 125.965 313.001 126.048 312.751 126.048C312.501 126.048 312.169 125.965 311.919 125.715ZM57.1606 124.8C56.5782 124.8 56.079 124.301 56.079 123.635C56.079 123.053 56.5782 122.554 57.2438 122.554C57.8262 122.554 58.3254 123.053 58.3254 123.718C58.2422 124.301 57.743 124.8 57.1606 124.8ZM308.092 120.89C307.759 120.39 307.842 119.642 308.425 119.309C308.924 118.976 309.589 119.059 310.005 119.642C310.338 120.141 310.255 120.89 309.673 121.222C309.506 121.389 309.257 121.389 309.007 121.389C308.674 121.306 308.341 121.139 308.092 120.89ZM57.4102 118.81C56.8278 118.726 56.3286 118.227 56.4118 117.562C56.495 116.979 56.9942 116.48 57.6598 116.563C58.2422 116.646 58.7414 117.146 58.6582 117.811C58.575 118.394 58.0758 118.81 57.5766 118.81C57.4934 118.81 57.4934 118.81 57.4102 118.81ZM305.097 115.398C304.847 114.816 305.097 114.15 305.679 113.901C306.261 113.651 306.927 113.901 307.177 114.483C307.426 115.066 307.177 115.731 306.594 115.981C306.428 116.064 306.261 116.064 306.178 116.064C305.679 116.147 305.263 115.898 305.097 115.398ZM58.2422 112.819C57.6598 112.736 57.2438 112.07 57.327 111.488C57.4102 110.906 58.0758 110.49 58.6582 110.573C59.2406 110.739 59.6566 111.322 59.5734 111.904C59.4902 112.403 58.991 112.819 58.4918 112.819C58.3254 112.819 58.2422 112.819 58.2422 112.819ZM149.762 109.574C149.762 108.992 150.178 108.41 150.844 108.41C151.426 108.41 152.009 108.826 152.009 109.491C152.009 110.074 151.593 110.656 150.927 110.656C150.927 110.656 150.927 110.656 150.844 110.656C150.345 110.656 149.845 110.24 149.762 109.574ZM303.183 109.491C303.1 108.909 303.433 108.326 304.098 108.16C304.681 108.077 305.263 108.41 305.429 109.075C305.513 109.658 305.18 110.24 304.514 110.406C304.431 110.406 304.348 110.406 304.265 110.406C303.765 110.406 303.349 109.99 303.183 109.491ZM144.77 110.323C144.188 110.24 143.772 109.658 143.855 109.075C143.938 108.493 144.521 108.077 145.103 108.16C145.685 108.243 146.101 108.826 146.018 109.408C145.935 109.99 145.436 110.323 144.937 110.323C144.853 110.323 144.853 110.323 144.77 110.323ZM155.753 108.909C155.586 108.326 156.002 107.661 156.585 107.578C157.167 107.411 157.833 107.744 157.916 108.41C158.082 108.992 157.666 109.658 157.084 109.741C157.001 109.741 156.917 109.741 156.834 109.741C156.335 109.824 155.919 109.491 155.753 108.909ZM138.78 108.909C138.197 108.742 137.865 108.077 138.031 107.494C138.197 106.912 138.863 106.579 139.445 106.746C140.028 106.912 140.361 107.578 140.194 108.16C140.028 108.659 139.612 108.909 139.113 108.909C138.946 108.909 138.863 108.909 138.78 108.909ZM161.493 107.078C161.244 106.496 161.493 105.83 162.076 105.581C162.658 105.331 163.324 105.581 163.573 106.163C163.823 106.746 163.573 107.411 162.991 107.661C162.825 107.744 162.658 107.744 162.492 107.744C162.076 107.744 161.66 107.494 161.493 107.078ZM59.5734 106.995C58.991 106.829 58.6582 106.163 58.8246 105.581C58.991 104.998 59.6566 104.666 60.239 104.832C60.8214 104.998 61.1542 105.664 60.9878 106.246C60.8214 106.746 60.4054 106.995 59.9062 106.995C59.823 107.078 59.7398 106.995 59.5734 106.995ZM133.039 106.579C132.457 106.33 132.207 105.664 132.54 105.082C132.789 104.499 133.455 104.25 134.037 104.582C134.62 104.832 134.869 105.498 134.537 106.08C134.37 106.496 133.954 106.746 133.538 106.746C133.372 106.662 133.205 106.662 133.039 106.579ZM166.818 104.333C166.485 103.834 166.652 103.085 167.151 102.752C167.65 102.419 168.399 102.586 168.732 103.085C169.065 103.584 168.898 104.333 168.399 104.666C168.233 104.749 167.983 104.832 167.817 104.832C167.401 104.832 166.985 104.666 166.818 104.333ZM302.601 103.334C302.601 102.752 303.1 102.17 303.682 102.17C304.265 102.17 304.764 102.669 304.847 103.251C304.847 103.834 304.348 104.333 303.765 104.416C303.1 104.416 302.601 103.917 302.601 103.334ZM127.631 103.75C127.132 103.418 126.882 102.752 127.215 102.253C127.548 101.754 128.213 101.504 128.713 101.837C129.212 102.17 129.461 102.835 129.129 103.334C128.879 103.667 128.546 103.917 128.13 103.917C128.047 103.917 127.797 103.834 127.631 103.75ZM61.7366 101.338C61.1542 101.088 60.9046 100.422 61.2374 99.84C61.487 99.2576 62.1526 99.008 62.735 99.3408C63.3174 99.5904 63.567 100.256 63.2342 100.838C63.0678 101.254 62.6518 101.504 62.2358 101.504C61.9862 101.421 61.8198 101.421 61.7366 101.338ZM171.727 100.922C171.311 100.422 171.394 99.7568 171.893 99.3408C172.393 98.9248 173.058 99.008 173.474 99.5072C173.89 100.006 173.807 100.672 173.308 101.088C173.058 101.254 172.809 101.338 172.559 101.338C172.226 101.338 171.977 101.171 171.727 100.922ZM122.473 100.589C121.973 100.256 121.807 99.5904 122.14 99.008C122.473 98.5088 123.138 98.3424 123.721 98.6752C124.22 99.008 124.386 99.6736 124.053 100.256C123.804 100.589 123.471 100.755 123.138 100.755C122.889 100.755 122.639 100.672 122.473 100.589ZM304.015 98.4256C303.433 98.3424 302.933 97.76 303.017 97.1776C303.1 96.5952 303.682 96.096 304.265 96.1792C304.847 96.2624 305.346 96.8448 305.263 97.4272C305.18 98.0096 304.681 98.4256 304.181 98.4256C304.098 98.4256 304.015 98.4256 304.015 98.4256ZM117.397 97.2608C116.898 96.928 116.732 96.1792 117.065 95.68C117.397 95.1808 118.146 95.0144 118.645 95.3472C119.145 95.68 119.311 96.4288 118.978 96.928C118.729 97.2608 118.396 97.4272 118.063 97.4272C117.813 97.4272 117.647 97.4272 117.397 97.2608ZM176.22 96.928C175.804 96.512 175.804 95.7632 176.22 95.3472C176.636 94.9312 177.385 94.9312 177.801 95.3472C178.217 95.7632 178.217 96.512 177.801 96.928C177.551 97.1776 177.301 97.2608 176.969 97.2608C176.719 97.2608 176.469 97.1776 176.22 96.928ZM64.5654 96.096C64.0662 95.7632 63.8998 95.0144 64.2326 94.5152C64.5654 94.016 65.3142 93.8496 65.8134 94.1824C66.3126 94.5152 66.479 95.264 66.063 95.7632C65.8134 96.096 65.4806 96.2624 65.1478 96.2624C64.9814 96.2624 64.7318 96.1792 64.5654 96.096ZM112.405 94.016C111.906 93.6832 111.74 93.0176 112.073 92.4352C112.405 91.936 113.071 91.7696 113.653 92.1024C114.153 92.4352 114.319 93.1008 113.986 93.6832C113.737 94.016 113.404 94.1824 113.071 94.1824C112.821 94.1824 112.655 94.0992 112.405 94.016ZM180.38 92.6016C179.881 92.1856 179.881 91.52 180.297 91.0208C180.713 90.5216 181.378 90.5216 181.877 90.9376C182.377 91.3536 182.377 92.0192 181.961 92.5184C181.711 92.768 181.461 92.9344 181.129 92.9344C180.796 92.8512 180.546 92.768 180.38 92.6016ZM304.847 92.5184C304.265 92.4352 303.849 91.8528 303.932 91.1872C304.015 90.6048 304.597 90.1888 305.263 90.272C305.845 90.3552 306.261 90.9376 306.178 91.6032C306.095 92.1024 305.596 92.5184 305.097 92.5184C305.013 92.5184 304.93 92.5184 304.847 92.5184ZM68.2262 91.2704C67.8102 90.8544 67.8102 90.1056 68.2262 89.6896C68.6422 89.2736 69.391 89.2736 69.807 89.6896C70.223 90.1056 70.223 90.8544 69.807 91.2704C69.5574 91.52 69.3078 91.6032 68.975 91.6032C68.7254 91.6032 68.4758 91.52 68.2262 91.2704ZM107.33 90.9376C106.831 90.6048 106.581 89.9392 106.914 89.44C107.247 88.8576 107.913 88.6912 108.412 89.024C108.911 89.3568 109.161 90.0224 108.828 90.5216C108.661 90.8544 108.245 91.104 107.829 91.104C107.663 91.104 107.497 91.0208 107.33 90.9376ZM102.089 88.2752C101.506 88.0256 101.257 87.36 101.506 86.7776C101.756 86.1952 102.421 85.9456 103.004 86.1952C103.586 86.4448 103.836 87.1104 103.586 87.6928C103.42 88.1088 103.004 88.3584 102.588 88.3584C102.338 88.3584 102.255 88.3584 102.089 88.2752ZM184.207 87.9424C183.708 87.5264 183.625 86.8608 184.041 86.3616C184.457 85.8624 185.122 85.7792 185.621 86.1952C186.121 86.6112 186.204 87.2768 185.788 87.776C185.538 88.0256 185.205 88.192 184.873 88.192C184.706 88.192 184.457 88.1088 184.207 87.9424ZM72.8022 87.4432C72.4694 86.944 72.6358 86.1952 73.135 85.8624C73.6342 85.5296 74.383 85.696 74.7158 86.1952C75.0486 86.6944 74.8822 87.4432 74.383 87.776C74.2166 87.8592 73.967 87.9424 73.8006 87.9424C73.3846 87.9424 72.9686 87.776 72.8022 87.4432ZM305.929 86.6112C305.346 86.528 304.93 85.9456 305.013 85.28C305.097 84.6976 305.679 84.2816 306.345 84.3648C306.927 84.448 307.343 85.0304 307.26 85.696C307.177 86.2784 306.677 86.6112 306.178 86.6112C306.095 86.6112 306.012 86.6112 305.929 86.6112ZM96.5974 86.112C96.015 85.9456 95.6822 85.28 95.8486 84.6976C96.015 84.1152 96.6806 83.7824 97.263 83.9488C97.8454 84.1152 98.1782 84.7808 98.0118 85.3632C97.8454 85.8624 97.4294 86.112 96.9302 86.112C96.847 86.1952 96.6806 86.1952 96.5974 86.112ZM78.127 84.6976C77.9606 84.1152 78.2934 83.4496 78.8758 83.2832C79.4582 83.1168 80.1238 83.4496 80.2902 84.032C80.4566 84.6144 80.1238 85.28 79.5414 85.4464C79.4582 85.4464 79.2918 85.5296 79.2086 85.5296C78.7094 85.5296 78.2934 85.1968 78.127 84.6976ZM90.9398 84.7808C90.3574 84.6976 89.9414 84.1152 90.0246 83.5328C90.1078 82.9504 90.6902 82.5344 91.2726 82.6176C91.855 82.7008 92.271 83.2832 92.1878 83.8656C92.1046 84.448 91.6054 84.7808 91.1062 84.7808C91.023 84.7808 90.9398 84.7808 90.9398 84.7808ZM83.951 83.4496C83.951 82.8672 84.367 82.2848 85.0326 82.2848C85.615 82.2848 86.1974 82.7008 86.1974 83.3664C86.1974 83.9488 85.7814 84.5312 85.1158 84.5312C85.1158 84.5312 85.1158 84.5312 85.0326 84.5312C84.5334 84.448 84.0342 84.032 83.951 83.4496ZM187.951 83.2832C187.452 82.8672 187.369 82.2016 187.785 81.7024C188.201 81.2032 188.866 81.12 189.365 81.536C189.865 81.952 189.948 82.6176 189.532 83.1168C189.282 83.3664 188.949 83.5328 188.617 83.5328C188.45 83.5328 188.201 83.4496 187.951 83.2832ZM306.927 80.6208C306.345 80.5376 305.845 80.0384 305.929 79.3728C306.012 78.7904 306.594 78.2912 307.177 78.3744C307.759 78.4576 308.258 79.04 308.175 79.6224C308.092 80.2048 307.593 80.6208 307.093 80.6208C307.01 80.6208 306.927 80.6208 306.927 80.6208ZM191.695 78.5408C191.196 78.1248 191.113 77.4592 191.529 76.96C191.945 76.4608 192.61 76.3776 193.109 76.7936C193.609 77.2096 193.692 77.8752 193.276 78.3744C193.026 78.624 192.693 78.7904 192.444 78.7904C192.194 78.7904 191.945 78.7072 191.695 78.5408ZM306.261 73.5488C306.261 72.9664 306.761 72.384 307.343 72.384C307.925 72.384 308.508 72.8832 308.508 73.4656C308.508 74.048 308.009 74.6304 307.426 74.6304C306.761 74.6304 306.261 74.1312 306.261 73.5488ZM195.605 73.9648C195.106 73.5488 195.106 72.8832 195.522 72.384C195.938 71.968 196.604 71.8848 197.103 72.3008C197.602 72.7168 197.602 73.3824 197.186 73.8816C196.937 74.1312 196.687 74.2144 196.354 74.2144C196.021 74.2976 195.772 74.1312 195.605 73.9648ZM199.682 69.5552C199.266 69.1392 199.266 68.3904 199.682 67.9744C200.098 67.5584 200.847 67.5584 201.263 67.9744C201.679 68.3904 201.679 69.1392 201.263 69.5552C201.013 69.8048 200.764 69.888 200.514 69.888C200.181 69.888 199.932 69.8048 199.682 69.5552ZM305.679 67.808C305.513 67.2256 305.929 66.6432 306.511 66.4768C307.093 66.3104 307.676 66.7264 307.842 67.3088C308.009 67.8912 307.593 68.4736 307.01 68.64C306.927 68.64 306.844 68.64 306.761 68.64C306.261 68.7232 305.762 68.3072 305.679 67.808ZM204.009 65.4784C203.593 64.9792 203.676 64.3136 204.092 63.8976C204.591 63.4816 205.257 63.5648 205.673 63.9808C206.089 64.48 206.005 65.1456 205.589 65.5616C205.34 65.728 205.09 65.8112 204.841 65.8112C204.591 65.8112 204.258 65.728 204.009 65.4784ZM303.849 62.3168C303.599 61.7344 303.849 61.0688 304.431 60.8192C305.013 60.5696 305.679 60.8192 305.929 61.4016C306.178 61.984 305.929 62.6496 305.346 62.8992C305.18 62.9824 305.013 62.9824 304.93 62.9824C304.431 62.9824 304.098 62.7328 303.849 62.3168ZM208.668 61.568C208.335 61.0688 208.418 60.4032 208.917 59.9872C209.417 59.5712 210.082 59.7376 210.498 60.1536C210.914 60.6528 210.748 61.3184 210.332 61.7344C210.165 61.9008 209.916 61.984 209.666 61.984C209.167 62.0672 208.834 61.9008 208.668 61.568ZM213.493 57.9904C213.161 57.4912 213.244 56.7424 213.826 56.4096C214.325 56.0768 215.074 56.16 215.407 56.7424C215.74 57.2416 215.657 57.9904 215.074 58.3232C214.908 58.4896 214.658 58.4896 214.409 58.4896C214.076 58.4896 213.66 58.3232 213.493 57.9904ZM301.02 57.3248C300.687 56.8256 300.77 56.16 301.269 55.744C301.769 55.4112 302.434 55.4944 302.85 55.9936C303.183 56.4928 303.1 57.1584 302.601 57.5744C302.434 57.7408 302.185 57.7408 301.935 57.7408C301.602 57.7408 301.186 57.5744 301.02 57.3248ZM218.485 54.7456C218.153 54.2464 218.319 53.4976 218.901 53.1648C219.401 52.832 220.149 52.9984 220.482 53.5808C220.815 54.08 220.649 54.8288 220.066 55.1616C219.9 55.2448 219.65 55.328 219.484 55.328C219.068 55.2448 218.735 55.0784 218.485 54.7456ZM297.276 52.9152C296.86 52.4992 296.86 51.7504 297.276 51.3344C297.692 50.9184 298.441 50.9184 298.857 51.3344C299.273 51.7504 299.273 52.4992 298.857 52.9152C298.607 53.1648 298.357 53.248 298.025 53.248C297.775 53.1648 297.442 53.0816 297.276 52.9152ZM223.727 51.7504C223.477 51.168 223.644 50.5024 224.226 50.2528C224.809 49.92 225.474 50.1696 225.724 50.752C225.973 51.3344 225.807 52 225.225 52.2496C225.058 52.3328 224.892 52.416 224.725 52.416C224.309 52.3328 223.893 52.1664 223.727 51.7504ZM229.135 49.088C228.885 48.5056 229.135 47.84 229.717 47.5904C230.3 47.3408 230.965 47.5904 231.215 48.1728C231.465 48.7552 231.215 49.4208 230.633 49.6704C230.466 49.7536 230.3 49.7536 230.217 49.7536C229.717 49.7536 229.301 49.504 229.135 49.088ZM292.783 49.1712C292.284 48.8384 292.201 48.0896 292.533 47.5904C292.866 47.0912 293.615 47.008 294.114 47.3408C294.613 47.6736 294.697 48.4224 294.364 48.9216C294.114 49.2544 293.781 49.4208 293.449 49.4208C293.199 49.3376 292.949 49.2544 292.783 49.1712ZM234.626 46.7584C234.377 46.176 234.709 45.5104 235.292 45.344C235.874 45.0944 236.54 45.4272 236.706 46.0096C236.956 46.592 236.623 47.2576 236.041 47.424C235.874 47.5072 235.791 47.5072 235.625 47.5072C235.209 47.424 234.793 47.1744 234.626 46.7584ZM287.791 46.0928C287.209 45.8432 287.042 45.0944 287.292 44.5952C287.541 44.0128 288.29 43.8464 288.789 44.096C289.372 44.3456 289.538 45.0112 289.289 45.5936C289.122 46.0096 288.706 46.176 288.29 46.176C288.124 46.2592 287.957 46.176 287.791 46.0928ZM240.284 44.7616C240.117 44.1792 240.45 43.5136 241.033 43.3472C241.615 43.1808 242.281 43.5136 242.447 44.096C242.613 44.6784 242.281 45.344 241.698 45.5104C241.615 45.5104 241.449 45.5936 241.365 45.5936C240.866 45.5104 240.45 45.1776 240.284 44.7616ZM282.383 43.9296C281.801 43.7632 281.468 43.0976 281.634 42.5152C281.801 41.9328 282.466 41.6 283.049 41.7664C283.631 41.9328 283.964 42.5984 283.797 43.1808C283.631 43.68 283.215 43.9296 282.716 43.9296C282.633 43.9296 282.549 43.9296 282.383 43.9296ZM246.108 43.0976C245.941 42.5152 246.357 41.8496 246.94 41.7664C247.522 41.6 248.105 42.016 248.271 42.5984C248.437 43.1808 248.021 43.7632 247.439 43.9296C247.356 43.9296 247.273 43.9296 247.189 43.9296C246.69 43.9296 246.191 43.5968 246.108 43.0976ZM251.932 41.7664C251.849 41.184 252.265 40.6016 252.847 40.4352C253.429 40.352 254.012 40.768 254.178 41.3504C254.261 41.9328 253.845 42.5152 253.263 42.6816C253.18 42.6816 253.097 42.6816 253.097 42.6816C252.514 42.6816 252.015 42.2656 251.932 41.7664ZM276.725 42.432C276.143 42.3488 275.727 41.7664 275.81 41.1008C275.893 40.5184 276.559 40.1024 277.141 40.1856C277.724 40.2688 278.14 40.9344 278.057 41.5168C277.973 42.016 277.474 42.432 276.975 42.432C276.892 42.432 276.809 42.432 276.725 42.432ZM257.839 40.8512C257.756 40.2688 258.255 39.6864 258.837 39.6032C259.42 39.52 260.002 40.0192 260.085 40.6016C260.169 41.184 259.669 41.7664 259.087 41.8496H259.004C258.421 41.8496 257.922 41.4336 257.839 40.8512ZM270.901 41.6832C270.319 41.6 269.82 41.1008 269.903 40.4352C269.986 39.8528 270.485 39.3536 271.068 39.4368C271.65 39.52 272.149 40.0192 272.066 40.6016C272.066 41.184 271.567 41.6832 270.901 41.6832C270.985 41.6832 270.901 41.6832 270.901 41.6832ZM263.829 40.352C263.829 39.7696 264.329 39.1872 264.911 39.1872C265.493 39.1872 266.076 39.6864 266.076 40.2688C266.076 40.8512 265.577 41.4336 264.994 41.4336C264.412 41.4336 263.913 41.0176 263.829 40.352Z" fill="#09234E"/>
<path d="M305.429 334.547C305.263 334.547 305.096 334.547 305.013 334.464C304.847 334.381 304.764 334.298 304.68 334.214C304.431 333.965 304.348 333.715 304.348 333.382C304.348 333.05 304.431 332.8 304.68 332.55C305.096 332.134 305.845 332.134 306.261 332.55C306.511 332.8 306.594 333.05 306.594 333.382C306.594 333.715 306.511 333.965 306.261 334.214C306.012 334.464 305.679 334.547 305.429 334.547Z" fill="#EBB393"/>
<path opacity="0.45" d="M57.4097 347.859H335.88C334.383 340.038 333.051 332.134 335.381 324.73C339.791 310.918 355.682 303.181 359.925 289.37C363.669 277.056 357.013 264.077 349.525 253.51C342.037 242.944 333.301 232.294 332.219 219.482C331.304 208.499 336.379 197.933 342.12 188.531C347.861 179.13 354.517 169.978 357.512 159.411C360.507 148.845 358.927 135.949 350.274 129.043C340.04 120.806 325.147 124.134 312.418 127.213C299.688 130.291 283.963 131.789 275.56 121.722C270.235 115.232 269.903 106.08 266.408 98.4256C259.419 83.2 240.117 76.4608 223.727 79.7888C207.336 83.2 193.608 94.5984 182.875 107.411C172.143 120.224 163.573 134.867 152.757 147.597C143.605 158.413 130.293 168.646 116.565 165.402C104.168 162.406 95.8481 149.344 83.2849 147.43C74.2993 146.099 65.1473 151.174 59.7393 158.496C54.3313 165.818 52.1681 175.053 51.3361 184.122C49.2561 207.667 55.8289 231.962 69.7233 251.098C77.0449 261.248 86.7793 273.146 81.7873 284.544C75.2977 299.27 49.7553 297.939 44.7633 313.248C42.8497 319.238 44.9297 325.728 47.5921 331.386C50.3377 337.293 53.6657 342.701 57.4097 347.859Z" fill="#09234E"/>
<path d="M171.395 109.907C166.32 118.643 161.161 128.294 156.918 137.363C153.923 135.366 151.261 133.037 148.681 130.541C146.019 132.122 143.44 133.786 140.777 135.366C146.768 139.36 153.091 142.938 159.83 145.35C163.824 133.952 167.401 121.389 171.395 109.907Z" fill="#002B66"/>
<path d="M102.09 309.587V125.798C102.09 117.478 108.829 110.822 117.066 110.822H335.549C343.869 110.822 350.525 117.562 350.525 125.798V309.587C350.525 317.907 343.786 324.563 335.549 324.563H117.066C108.746 324.563 102.09 317.907 102.09 309.587Z" fill="url(#paint0_linear_6568_10699)"/>
<path d="M346.779 307.84V263.661V171.226V127.046C346.779 120.141 341.704 114.483 335.547 114.483H117.064C110.824 114.483 105.832 120.141 105.832 127.046V307.84C105.832 314.746 110.907 320.403 117.064 320.403H335.547C341.704 320.403 346.779 314.746 346.779 307.84Z" fill="white"/>
<g opacity="0.1">
<path opacity="0.1" d="M303.852 158.33L117.484 344.698C120.064 346.694 123.225 347.942 126.72 347.942H151.929L303.852 196.019V158.33Z" fill="white"/>
<path opacity="0.1" d="M111.742 331.968L303.851 139.859V114.4C303.851 106.08 297.112 99.424 288.875 99.424H269.073L111.825 256.672V331.968H111.742Z" fill="white"/>
</g>
<path opacity="0.45" d="M129.295 320.403H117.564C110.908 320.403 105.5 314.995 105.5 308.339V126.714C105.5 119.974 110.908 114.566 117.647 114.566H129.212V320.403H129.295Z" fill="#F0F1F3"/>
<path d="M64.6484 336.544L68.0596 328.39L74.5492 332.218L69.1412 339.206L64.6484 336.544Z" fill="#F2D2C2"/>
<path d="M103.836 342.035L102.172 331.718H112.738L111.157 342.035H103.836Z" fill="#F2D2C2"/>
<path d="M66.0638 241.363C67.0622 244.192 68.0606 247.354 66.979 250.099C67.811 251.597 66.7294 253.926 65.3982 254.925C64.067 255.923 61.987 255.757 60.739 254.592C59.8238 253.677 59.491 252.346 59.3246 251.014C58.9918 247.52 59.9902 243.859 62.0702 241.114C62.0702 240.198 62.4862 239.2 63.4014 239.2C64.3166 239.117 65.8142 240.531 66.0638 241.363Z" fill="#F2D2C2"/>
<path d="M94.6853 169.894C93.3541 167.981 93.5205 165.402 94.5189 163.322C95.5173 161.242 97.2645 159.661 99.0117 158.246C100.759 156.832 102.672 155.501 104.253 153.837C107.082 150.758 108.413 146.432 107.997 142.272C107.748 140.192 106.999 138.112 105.418 136.864C102.839 134.95 98.9285 135.866 96.5989 138.029C94.1861 140.192 92.9381 143.27 91.6069 146.182C90.2757 149.094 88.6949 152.173 85.9493 153.92C84.2853 155.002 82.2884 155.501 80.6244 156.582C77.0468 158.829 75.466 163.738 76.9636 167.648C75.466 169.146 75.1332 171.642 75.9652 173.555C76.7972 175.469 78.4612 176.966 80.3748 177.882C83.9524 179.712 88.362 179.795 92.0229 178.298C91.2741 176.467 91.6901 173.638 93.1877 172.39C93.9365 171.725 94.7685 170.893 94.6853 169.894Z" fill="url(#paint1_linear_6568_10699)"/>
<path d="M131.542 145.517C130.46 143.853 130.959 141.357 132.54 140.192C132.124 138.278 133.538 135.699 135.535 135.45C136.783 135.283 138.198 135.949 138.614 137.114C138.863 137.779 138.697 138.611 138.447 139.277C137.615 142.272 136.034 145.018 133.871 147.181C133.122 146.765 131.958 146.266 131.542 145.517Z" fill="#F2D2C2"/>
<path d="M66.9786 244.192C68.809 230.464 75.3818 217.318 85.3658 207.667C87.945 205.171 90.7738 202.842 93.1034 200.179C95.433 197.517 97.3466 194.189 97.6794 190.611C97.8458 188.781 97.5962 186.95 96.5978 185.453C95.5994 183.955 93.769 182.874 92.0218 183.123C86.4474 183.872 81.8714 188.032 78.2106 192.275C66.8954 205.67 60.7386 223.226 61.0714 240.781C63.0682 242.528 64.4826 243.526 66.9786 244.192Z" fill="#FFB227"/>
<path d="M66.9786 244.192C68.809 230.464 75.3818 217.318 85.3658 207.667C87.945 205.171 90.7738 202.842 93.1034 200.179C95.433 197.517 97.3466 194.189 97.6794 190.611C97.8458 188.781 97.5962 186.95 96.5978 185.453C95.5994 183.955 93.769 182.874 92.0218 183.123C86.4474 183.872 81.8714 188.032 78.2106 192.275C66.8954 205.67 60.7386 223.226 61.0714 240.781C63.0682 242.528 64.4826 243.526 66.9786 244.192Z" fill="url(#paint2_linear_6568_10699)"/>
<path d="M102.171 267.238C100.341 290.784 90.6898 313.664 74.965 331.302C72.5522 330.554 70.3058 328.89 68.5586 327.059C71.221 312.499 81.7874 299.853 82.9522 285.126C83.5346 277.306 81.5378 269.485 80.5394 261.664C79.541 253.843 77.2946 242.112 81.8706 235.706C88.7762 239.283 97.0962 247.853 101.09 254.509C102.421 256.672 103.586 259.085 104.002 261.581C104.418 264.077 102.338 264.659 102.171 267.238Z" fill="#005898"/>
<path d="M102.171 267.238C100.341 290.784 90.6898 313.664 74.965 331.302C72.5522 330.554 70.3058 328.89 68.5586 327.059C71.221 312.499 81.7874 299.853 82.9522 285.126C83.5346 277.306 81.5378 269.485 80.5394 261.664C79.541 253.843 77.2946 242.112 81.8706 235.706C88.7762 239.283 97.0962 247.853 101.09 254.509C102.421 256.672 103.586 259.085 104.002 261.581C104.418 264.077 102.338 264.659 102.171 267.238Z" fill="url(#paint3_linear_6568_10699)"/>
<path opacity="0.2" d="M103.918 261.498C103.502 259.002 102.337 256.589 101.006 254.426C97.0958 247.936 89.0254 239.616 82.2862 235.872C81.9534 236.038 81.6206 236.205 81.371 236.288C77.7102 242.362 79.291 252.429 80.2894 259.834C80.539 260.25 80.7054 260.582 80.955 260.998C84.699 267.488 89.6078 273.312 92.9358 279.968C95.0158 284.128 96.5966 288.87 96.763 293.53C99.675 284.96 101.505 276.058 102.171 267.072C102.337 264.659 104.417 264.077 103.918 261.498Z" fill="black"/>
<path d="M106.084 235.539C113.988 267.738 116.401 301.184 113.239 334.214H102.423C99.4279 322.15 96.6823 308.838 96.8487 296.358C96.9319 288.621 98.1799 280.8 96.2663 273.395C94.5191 266.739 90.3591 261.082 86.9479 255.174C83.5367 249.267 80.6247 242.445 81.8727 235.706C89.8599 233.709 98.0967 233.626 106.084 235.539Z" fill="url(#paint4_linear_6568_10699)"/>
<path opacity="0.2" d="M107.415 241.363C107.249 240.698 107.166 240.115 106.999 239.45C106.833 238.867 106.75 238.368 106.583 237.786C104.087 237.037 102.091 235.872 99.0121 235.123C97.1817 234.707 95.3513 234.374 93.5209 234.208C91.1081 234.208 88.7785 234.458 86.3657 234.79C84.2025 235.456 82.2057 236.621 80.4585 238.118C80.3753 238.368 80.2921 238.618 80.1257 238.867C80.1257 238.867 80.1257 238.867 80.1257 238.95C79.9593 239.366 79.8761 239.782 79.7097 240.198V240.282C79.6265 240.698 79.4601 241.197 79.3769 241.613V241.696C79.1273 243.11 78.9609 244.608 78.9609 246.106V246.189C78.9609 246.688 78.9609 247.187 78.9609 247.686C78.9609 247.77 78.9609 247.77 78.9609 247.853C78.9609 248.352 78.9609 248.851 79.0441 249.35V249.434C79.1273 250.432 79.2105 251.514 79.2937 252.512V252.595C79.3769 253.094 79.3769 253.594 79.4601 254.01C79.4601 254.093 79.4601 254.093 79.4601 254.176C79.5433 254.675 79.5433 255.091 79.6265 255.59C79.6265 255.674 79.6265 255.757 79.6265 255.84C79.7097 256.256 79.7097 256.755 79.7929 257.171C79.7929 257.254 79.7929 257.338 79.7929 257.421C79.7929 257.67 79.8761 257.92 79.8761 258.253C90.8585 256.256 100.843 250.099 107.415 241.363Z" fill="black"/>
<path d="M77.2944 248.019C86.5296 250.682 99.9248 243.11 108.91 239.782C108.162 230.214 106.082 220.314 105.333 210.746C104.584 200.429 103.502 189.446 97.0128 181.376C94.3504 178.131 88.36 179.962 85.1984 182.707C82.0368 185.453 80.2896 189.446 78.9584 193.44C73.8832 209.248 72.8848 232.211 77.2944 248.019Z" fill="url(#paint5_linear_6568_10699)"/>
<path opacity="0.2" d="M105.336 210.829C104.67 201.76 103.755 192.109 99.0959 184.454C97.1823 184.954 95.2687 185.786 93.5215 186.784C89.9439 188.864 86.9487 192.109 83.3711 194.022C89.6111 201.011 97.0991 206.918 105.419 211.245C105.336 211.162 105.336 210.995 105.336 210.829Z" fill="black"/>
<path d="M89.3613 169.478C88.6125 173.722 88.1965 177.965 88.1133 182.291C90.1933 182.874 92.5229 183.622 94.6029 183.206C95.2685 178.88 95.4349 174.304 95.1853 169.894C93.1885 169.229 91.5245 169.229 89.3613 169.478Z" fill="#F2D2C2"/>
<path opacity="0.2" d="M88.4453 176.634C90.4421 178.048 92.6885 179.213 95.0181 179.962C95.3509 176.883 95.3509 173.722 95.2677 170.643C95.0181 170.31 94.7685 169.978 94.4357 169.645C94.4357 169.645 94.3525 169.645 94.3525 169.562C92.6885 169.146 91.1909 169.146 89.3605 169.312C88.9445 171.808 88.6949 174.221 88.4453 176.634Z" fill="black"/>
<path d="M89.6081 161.158C94.3505 163.738 98.1777 168.147 100.008 173.222C98.9265 175.219 97.0129 176.717 94.8497 177.382C91.6881 178.381 88.0273 177.882 85.3649 175.802C82.7025 173.805 81.3713 170.144 82.2033 166.982C82.9521 163.821 86.6129 159.578 89.6081 161.158Z" fill="#F2D2C2"/>
<path d="M135.287 145.85C132.708 155.75 129.547 165.485 124.721 174.47C119.812 183.456 113.073 191.526 104.42 196.851C101.675 198.515 98.7626 199.93 95.601 200.346C92.4394 200.762 89.0282 200.179 86.6154 198.182C84.2026 196.186 81.2074 191.61 83.0378 189.03C85.3674 185.786 89.4442 184.454 93.105 183.04C110.327 176.218 124.388 161.741 130.711 144.269L135.287 145.85Z" fill="url(#paint6_linear_6568_10699)"/>
<path d="M94.5192 162.739C94.6024 163.155 94.436 163.654 94.1032 163.987C93.7704 164.32 93.4377 164.57 93.0217 164.819C90.9417 166.067 88.4457 166.816 85.9497 166.899C86.7817 168.064 86.948 169.811 86.6152 171.142C87.364 171.808 88.0296 172.557 88.7784 173.222C88.1128 172.806 87.0312 172.557 86.2824 172.224C85.8664 172.058 85.284 171.891 84.868 172.224C84.6184 172.474 84.5352 172.89 84.6184 173.222C84.7016 173.555 84.9512 173.805 85.284 174.054C86.0328 174.803 87.0313 175.302 88.1129 175.552C88.4457 176.55 88.3625 177.632 88.1961 178.714C85.3672 178.048 81.7896 176.634 80.292 174.138C79.2936 172.39 79.2937 170.31 79.3769 168.314C79.6265 165.485 80.2088 162.49 81.956 160.243C83.7032 157.997 86.7816 156.582 89.5272 157.498C91.6904 158.413 94.1032 160.493 94.5192 162.739Z" fill="url(#paint7_linear_6568_10699)"/>
<path d="M112.741 336.627H102.174C101.176 336.627 100.344 335.795 100.344 334.797V333.632C100.344 332.634 101.176 331.802 102.174 331.802H112.741C113.739 331.802 114.571 332.634 114.571 333.632V334.88C114.571 335.795 113.739 336.627 112.741 336.627Z" fill="#005898"/>
<path d="M112.741 336.627H102.174C101.176 336.627 100.344 335.795 100.344 334.797V333.632C100.344 332.634 101.176 331.802 102.174 331.802H112.741C113.739 331.802 114.571 332.634 114.571 333.632V334.88C114.571 335.795 113.739 336.627 112.741 336.627Z" fill="url(#paint8_linear_6568_10699)"/>
<path d="M75.2176 334.131L66.1488 328.723C65.2336 328.224 64.984 327.059 65.4832 326.227L66.0656 325.146C66.5648 324.23 67.7296 323.981 68.5616 324.48L77.6304 329.888C78.5456 330.387 78.7952 331.552 78.296 332.384L77.7136 333.466C77.2144 334.298 76.1328 334.63 75.2176 334.131Z" fill="#005898"/>
<path d="M75.2176 334.131L66.1488 328.723C65.2336 328.224 64.984 327.059 65.4832 326.227L66.0656 325.146C66.5648 324.23 67.7296 323.981 68.5616 324.48L77.6304 329.888C78.5456 330.387 78.7952 331.552 78.296 332.384L77.7136 333.466C77.2144 334.298 76.1328 334.63 75.2176 334.131Z" fill="url(#paint9_linear_6568_10699)"/>
<path d="M103.42 342.618L101.506 345.946C101.007 346.778 101.589 347.859 102.588 347.859H117.065C118.396 347.859 118.812 346.112 117.647 345.446L111.407 342.118C111.241 342.035 110.991 341.952 110.825 341.952H104.501C104.085 342.035 103.669 342.285 103.42 342.618Z" fill="black"/>
<path d="M71.64 343.034L69.3104 339.456C69.2272 339.29 69.0608 339.123 68.8944 339.04L65.2336 336.877C64.9008 336.627 64.4016 336.627 64.0688 336.794L61.3232 338.042C60.408 338.458 60.3248 339.789 61.24 340.288L69.56 345.114L69.6432 345.197L70.3088 345.696C70.4752 345.862 70.7248 345.946 70.8912 345.946L71.7232 346.029C73.0544 346.195 73.6368 344.448 72.5552 343.699L72.056 343.366C71.8896 343.283 71.8064 343.2 71.64 343.034Z" fill="black"/>
<path d="M352.188 105.498C353.888 105.498 355.266 104.119 355.266 102.419C355.266 100.719 353.888 99.3409 352.188 99.3409C350.488 99.3409 349.109 100.719 349.109 102.419C349.109 104.119 350.488 105.498 352.188 105.498Z" fill="#091E42" fill-opacity="0.1"/>
<path d="M167.731 65.6448C167.731 67.0592 166.566 68.3072 165.069 68.3072C163.571 68.3072 162.406 67.1424 162.406 65.6448C162.406 64.2304 163.571 62.9824 165.069 62.9824C166.566 62.9824 167.731 64.1472 167.731 65.6448Z" fill="#091E42" fill-opacity="0.1"/>
<path d="M87.2772 54.912C87.2772 55.8272 86.5284 56.576 85.6132 56.576C84.698 56.576 83.9492 55.8272 83.9492 54.912C83.9492 53.9968 84.698 53.248 85.6132 53.248C86.5284 53.1648 87.2772 53.9968 87.2772 54.912Z" fill="#091E42" fill-opacity="0.1"/>
<path d="M85.4459 114.566C85.4459 115.565 84.6139 116.397 83.6156 116.397C82.6172 116.397 81.7852 115.565 81.7852 114.566C81.7852 113.568 82.6172 112.736 83.6156 112.736C84.6139 112.653 85.4459 113.485 85.4459 114.566Z" fill="#091E42" fill-opacity="0.1"/>
<path d="M42.2669 153.67C42.2669 155.667 40.6029 157.331 38.6061 157.331C36.6093 157.331 34.9453 155.667 34.9453 153.67C34.9453 151.674 36.6093 150.01 38.6061 150.01C40.6861 150.01 42.2669 151.59 42.2669 153.67Z" fill="#091E42" fill-opacity="0.1"/>
<path d="M261.667 65.4785C261.667 66.5601 260.835 67.3921 259.753 67.3921C258.672 67.3921 257.84 66.5601 257.84 65.4785C257.84 64.3969 258.672 63.5649 259.753 63.5649C260.835 63.5649 261.667 64.4801 261.667 65.4785Z" fill="#091E42" fill-opacity="0.1"/>
<path d="M322.567 66.8096C323.066 68.3072 324.231 69.472 325.645 69.888C324.147 70.3872 322.983 71.552 322.567 72.9664C322.067 71.4688 320.903 70.304 319.488 69.888C320.986 69.472 322.151 68.3072 322.567 66.8096Z" fill="#091E42" fill-opacity="0.1"/>
<path d="M364.582 318.406C365.082 319.904 366.246 321.069 367.661 321.485C366.163 321.984 364.998 323.149 364.582 324.563C364.083 323.066 362.918 321.901 361.504 321.485C363.002 320.986 364.166 319.904 364.582 318.406Z" fill="#091E42" fill-opacity="0.1"/>
<path d="M374.235 175.219C374.734 176.717 375.899 177.882 377.313 178.298C375.815 178.797 374.651 179.962 374.235 181.376C373.735 179.878 372.571 178.714 371.156 178.298C372.654 177.798 373.819 176.634 374.235 175.219Z" fill="#091E42" fill-opacity="0.1"/>
<path d="M286.293 83.4496C286.792 84.9472 287.957 86.112 289.372 86.528C287.874 87.0272 286.709 88.192 286.293 89.6064C285.794 88.1088 284.629 86.944 283.215 86.528C284.629 86.112 285.794 84.9472 286.293 83.4496Z" fill="#091E42" fill-opacity="0.1"/>
<path d="M204.422 39.6032C204.921 41.1008 206.086 42.2656 207.501 42.6816C206.003 43.1808 204.838 44.3456 204.422 45.76C203.923 44.2624 202.758 43.0976 201.344 42.6816C202.841 42.1824 204.006 41.0176 204.422 39.6032Z" fill="#091E42" fill-opacity="0.1"/>
<path d="M42.2659 71.136C42.7651 72.6336 43.9299 73.7984 45.3443 74.2144C43.8467 74.7136 42.6819 75.8784 42.2659 77.2928C41.7667 75.7952 40.6019 74.6304 39.1875 74.2144C40.6851 73.7984 41.8499 72.6336 42.2659 71.136Z" fill="#091E42" fill-opacity="0.1"/>
<path d="M129.293 62.7328C129.792 64.2304 130.957 65.3952 132.372 65.8112C130.874 66.3104 129.709 67.4752 129.293 68.8896C128.794 67.392 127.629 66.2272 126.215 65.8112C127.712 65.3952 128.877 64.2304 129.293 62.7328Z" fill="#091E42" fill-opacity="0.1"/>
<path d="M38.1057 217.651C38.6049 219.149 39.7697 220.314 41.1841 220.73C39.6865 221.229 38.5217 222.394 38.1057 223.808C37.6065 222.31 36.4417 221.146 35.0273 220.73C36.5249 220.314 37.6897 219.149 38.1057 217.651Z" fill="#091E42" fill-opacity="0.1"/>
<path opacity="0.35" d="M209.499 349.024C318.491 349.024 406.849 347.693 406.849 346.112C406.849 344.531 318.491 343.2 209.499 343.2C100.507 343.2 12.1484 344.531 12.1484 346.112C12.1484 347.693 100.59 349.024 209.499 349.024Z" fill="#9A6F5D"/>
<path opacity="0.45" d="M170.143 306.509H145.932C142.771 306.509 140.191 303.93 140.191 300.768V136.032C140.191 132.87 142.771 130.291 145.932 130.291H170.143C173.305 130.291 175.884 132.87 175.884 136.032V300.768C175.884 303.93 173.305 306.509 170.143 306.509Z" fill="#F0F1F3"/>
<path opacity="0.45" d="M183.957 138.278V132.538C183.957 131.29 184.955 130.374 186.12 130.374H309.423C310.671 130.374 311.586 131.373 311.586 132.538V138.278C311.586 139.526 310.587 140.442 309.423 140.442H186.12C184.955 140.525 183.957 139.526 183.957 138.278Z" fill="#F0F1F3"/>
<path opacity="0.45" d="M183.957 157.997V152.256C183.957 151.008 184.955 150.093 186.12 150.093H287.208C288.456 150.093 289.371 151.091 289.371 152.256V157.997C289.371 159.245 288.373 160.16 287.208 160.16H186.12C184.955 160.16 183.957 159.162 183.957 157.997Z" fill="#F0F1F3"/>
<path opacity="0.45" d="M183.957 187.366V181.626C183.957 180.378 184.955 179.462 186.12 179.462H278.223C279.471 179.462 280.386 180.461 280.386 181.626V187.366C280.386 188.614 279.387 189.53 278.223 189.53H186.12C184.955 189.53 183.957 188.531 183.957 187.366Z" fill="#F0F1F3"/>
<path opacity="0.45" d="M183.957 214.157V208.416C183.957 207.168 184.955 206.253 186.12 206.253H292.367C293.615 206.253 294.53 207.251 294.53 208.416V214.157C294.53 215.405 293.531 216.32 292.367 216.32H186.12C184.955 216.32 183.957 215.405 183.957 214.157Z" fill="#F0F1F3"/>
<path opacity="0.45" d="M183.957 234.374V228.634C183.957 227.386 184.955 226.47 186.12 226.47H306.843C308.091 226.47 309.007 227.469 309.007 228.634V234.374C309.007 235.622 308.008 236.538 306.843 236.538H186.12C184.955 236.538 183.957 235.539 183.957 234.374Z" fill="#F0F1F3"/>
<path opacity="0.45" d="M183.957 254.509V248.768C183.957 247.52 184.955 246.605 186.12 246.605H278.223C279.471 246.605 280.386 247.603 280.386 248.768V254.509C280.386 255.757 279.387 256.672 278.223 256.672H186.12C184.955 256.755 183.957 255.757 183.957 254.509Z" fill="#F0F1F3"/>
<path opacity="0.45" d="M183.957 302.848V289.203C183.957 287.955 184.955 287.04 186.12 287.04H238.037C239.285 287.04 240.2 288.038 240.2 289.203V302.848C240.2 304.096 239.202 305.011 238.037 305.011H186.12C184.955 305.011 183.957 304.013 183.957 302.848Z" fill="#088B00"/>
<defs>
<linearGradient id="paint0_linear_6568_10699" x1="226.285" y1="110.784" x2="226.285" y2="324.602" gradientUnits="userSpaceOnUse">
<stop stop-color="#4B4B84"/>
<stop offset="0.0275216" stop-color="#4D4C84"/>
<stop offset="1" stop-color="#7C6B8D"/>
</linearGradient>
<linearGradient id="paint1_linear_6568_10699" x1="75.496" y1="157.59" x2="108.041" y2="157.59" gradientUnits="userSpaceOnUse">
<stop stop-color="#683564"/>
<stop offset="0.5694" stop-color="#AF6A7C"/>
<stop offset="1" stop-color="#E3908D"/>
</linearGradient>
<linearGradient id="paint2_linear_6568_10699" x1="61.1482" y1="213.62" x2="97.7841" y2="213.62" gradientUnits="userSpaceOnUse">
<stop stop-color="#AFA5CE"/>
<stop offset="0.4763" stop-color="#8084C2"/>
<stop offset="1" stop-color="#5264B5"/>
</linearGradient>
<linearGradient id="paint3_linear_6568_10699" x1="68.5521" y1="283.455" x2="104.002" y2="283.455" gradientUnits="userSpaceOnUse">
<stop stop-color="#4B4B84"/>
<stop offset="0.0275216" stop-color="#4D4C84"/>
<stop offset="1" stop-color="#7C6B8D"/>
</linearGradient>
<linearGradient id="paint4_linear_6568_10699" x1="81.5456" y1="284.174" x2="114.592" y2="284.174" gradientUnits="userSpaceOnUse">
<stop stop-color="#4B4B84"/>
<stop offset="0.0275216" stop-color="#4D4C84"/>
<stop offset="1" stop-color="#7C6B8D"/>
</linearGradient>
<linearGradient id="paint5_linear_6568_10699" x1="74.4938" y1="214.175" x2="108.908" y2="214.175" gradientUnits="userSpaceOnUse">
<stop stop-color="#AFA5CE"/>
<stop offset="0.4763" stop-color="#8084C2"/>
<stop offset="1" stop-color="#5264B5"/>
</linearGradient>
<linearGradient id="paint6_linear_6568_10699" x1="82.5138" y1="172.345" x2="135.308" y2="172.345" gradientUnits="userSpaceOnUse">
<stop stop-color="#AFA5CE"/>
<stop offset="0.4763" stop-color="#8084C2"/>
<stop offset="1" stop-color="#5264B5"/>
</linearGradient>
<linearGradient id="paint7_linear_6568_10699" x1="79.4018" y1="168.081" x2="94.5081" y2="168.081" gradientUnits="userSpaceOnUse">
<stop stop-color="#683564"/>
<stop offset="0.5694" stop-color="#AF6A7C"/>
<stop offset="1" stop-color="#E3908D"/>
</linearGradient>
<linearGradient id="paint8_linear_6568_10699" x1="100.354" y1="334.203" x2="114.593" y2="334.203" gradientUnits="userSpaceOnUse">
<stop stop-color="#4B4B84"/>
<stop offset="0.0275216" stop-color="#4D4C84"/>
<stop offset="1" stop-color="#7C6B8D"/>
</linearGradient>
<linearGradient id="paint9_linear_6568_10699" x1="65.2472" y1="329.301" x2="78.6308" y2="329.301" gradientUnits="userSpaceOnUse">
<stop stop-color="#4B4B84"/>
<stop offset="0.0275216" stop-color="#4D4C84"/>
<stop offset="1" stop-color="#7C6B8D"/>
</linearGradient>
</defs>
</svg>
