<svg width="18" height="18" viewBox="0 0 14 14" fill="none" xmlns="http://www.w3.org/2000/svg">
<path d="M6.99935 7.58268C7.32152 7.58268 7.58268 7.32152 7.58268 6.99935C7.58268 6.67718 7.32152 6.41602 6.99935 6.41602C6.67718 6.41602 6.41602 6.67718 6.41602 6.99935C6.41602 7.32152 6.67718 7.58268 6.99935 7.58268Z" fill="black" stroke="#212121" strokeLinecap="round" strokeLinejoin="round"/>
<path d="M6.99935 3.50065C7.32152 3.50065 7.58268 3.23948 7.58268 2.91732C7.58268 2.59515 7.32152 2.33398 6.99935 2.33398C6.67718 2.33398 6.41602 2.59515 6.41602 2.91732C6.41602 3.23948 6.67718 3.50065 6.99935 3.50065Z" fill="black" stroke="#212121" strokeLinecap="round" strokeLinejoin="round"/>
<path d="M6.99935 11.6667C7.32152 11.6667 7.58268 11.4055 7.58268 11.0833C7.58268 10.7612 7.32152 10.5 6.99935 10.5C6.67718 10.5 6.41602 10.7612 6.41602 11.0833C6.41602 11.4055 6.67718 11.6667 6.99935 11.6667Z" fill="black" stroke="#212121" strokeLinecap="round" strokeLinejoin="round"/>
</svg>
