<svg width="24" height="24" viewBox="0 0 24 24" fill="none" xmlns="http://www.w3.org/2000/svg">
<rect width="24" height="24" transform="translate(0 24) rotate(-90)" fill="white" fill-opacity="0.01"/>
<path fill-rule="evenodd" clip-rule="evenodd" d="M10.2929 15.7084C10.4818 15.8952 10.7368 16 11.0024 16C11.2681 16 11.523 15.8952 11.7119 15.7084L14.6769 12.7694C14.8919 12.5514 14.9989 12.2694 14.9989 11.9904C14.9989 11.7114 14.8919 11.4344 14.6769 11.2214L11.7219 8.29142C11.5329 8.10485 11.278 8.00024 11.0124 8.00024C10.7469 8.00024 10.492 8.10485 10.3029 8.29142C10.2098 8.38325 10.1358 8.49269 10.0853 8.61338C10.0347 8.73407 10.0087 8.86359 10.0087 8.99442C10.0087 9.12525 10.0347 9.25477 10.0853 9.37546C10.1358 9.49615 10.2098 9.60559 10.3029 9.69742L12.6199 11.9954L10.2929 14.3024C10.2001 14.3945 10.1264 14.504 10.0762 14.6246C10.0259 14.7453 10 14.8747 10 15.0054C10 15.1361 10.0259 15.2656 10.0762 15.3862C10.1264 15.5069 10.2001 15.6164 10.2929 15.7084Z" fill="#212121"/>
</svg>
