<svg width="11" height="14" viewBox="0 0 11 14" fill="none" xmlns="http://www.w3.org/2000/svg">
<path d="M10.6857 4.2L6.765 0.318889C6.66285 0.217779 6.54158 0.137576 6.40811 0.0828611C6.27465 0.0281459 6.1316 -1.03147e-05 5.98714 2.83452e-09L1.41429 2.83452e-09C1.03919 2.83452e-09 0.679465 0.1475 0.414235 0.410051C0.149005 0.672601 0 1.0287 0 1.4L0 12.6C0 12.9713 0.149005 13.3274 0.414235 13.5899C0.679465 13.8525 1.03919 14 1.41429 14H9.58571C9.96081 14 10.3205 13.8525 10.5858 13.5899C10.851 13.3274 11 12.9713 11 12.6V4.96222C11 4.67722 10.8872 4.40357 10.6857 4.2ZM6.67857 1.33311L9.49614 4.12222H7.38571C7.1983 4.12181 7.01867 4.04793 6.88615 3.91674C6.75362 3.78556 6.67899 3.60775 6.67857 3.42222V1.33311ZM10.2143 12.6C10.2143 12.765 10.1481 12.9233 10.0302 13.04C9.9123 13.1567 9.75242 13.2222 9.58571 13.2222H1.41429C1.24758 13.2222 1.0877 13.1567 0.969819 13.04C0.851939 12.9233 0.785714 12.765 0.785714 12.6V1.4C0.785714 1.23498 0.851939 1.07671 0.969819 0.960022C1.0877 0.843333 1.24758 0.777778 1.41429 0.777778H5.89286V3.42222C5.89327 3.81403 6.05069 4.18967 6.33056 4.46671C6.61044 4.74376 6.98991 4.89959 7.38571 4.9H10.2143C10.2167 4.92067 10.2167 4.94155 10.2143 4.96222V12.6Z" fill="#828282"/>
<path d="M8.64297 7.77734H2.35725C2.18368 7.77734 2.04297 7.91663 2.04297 8.08845V8.24401C2.04297 8.41583 2.18368 8.55512 2.35725 8.55512H8.64297C8.81654 8.55512 8.95725 8.41583 8.95725 8.24401V8.08845C8.95725 7.91663 8.81654 7.77734 8.64297 7.77734Z" fill="#828282"/>
<path d="M5.63479 11.2002H2.33479C2.16122 11.2002 2.02051 11.3395 2.02051 11.5113V11.6669C2.02051 11.8387 2.16122 11.978 2.33479 11.978H5.63479C5.80837 11.978 5.94908 11.8387 5.94908 11.6669V11.5113C5.94908 11.3395 5.80837 11.2002 5.63479 11.2002Z" fill="#828282"/>
</svg>
