<svg width="14" height="14" viewBox="0 0 14 14" fill="none" xmlns="http://www.w3.org/2000/svg">
<g clip-path="url(#clip0)">
<path d="M7 8.75C7.9665 8.75 8.75 7.9665 8.75 7C8.75 6.0335 7.9665 5.25 7 5.25C6.0335 5.25 5.25 6.0335 5.25 7C5.25 7.9665 6.0335 8.75 7 8.75Z" stroke="#BDBDBD" strokeWidth="1.5" strokeLinecap="round" strokeLinejoin="round"/>
<path d="M11.3163 8.75065C11.2387 8.92659 11.2155 9.12176 11.2498 9.31099C11.2841 9.50022 11.3744 9.67483 11.5088 9.81231L11.5438 9.84731C11.6523 9.95566 11.7384 10.0843 11.7971 10.226C11.8558 10.3676 11.886 10.5194 11.886 10.6727C11.886 10.826 11.8558 10.9779 11.7971 11.1195C11.7384 11.2611 11.6523 11.3898 11.5438 11.4981C11.4355 11.6066 11.3068 11.6927 11.1652 11.7514C11.0236 11.8101 10.8717 11.8403 10.7184 11.8403C10.5651 11.8403 10.4133 11.8101 10.2717 11.7514C10.13 11.6927 10.0014 11.6066 9.893 11.4981L9.858 11.4631C9.72052 11.3287 9.54591 11.2385 9.35668 11.2041C9.16745 11.1698 8.97228 11.193 8.79634 11.2706C8.62381 11.3446 8.47666 11.4674 8.37302 11.6239C8.26937 11.7804 8.21375 11.9638 8.21301 12.1515V12.2506C8.21301 12.5601 8.09009 12.8568 7.8713 13.0756C7.6525 13.2944 7.35576 13.4173 7.04634 13.4173C6.73692 13.4173 6.44017 13.2944 6.22138 13.0756C6.00259 12.8568 5.87967 12.5601 5.87967 12.2506V12.1981C5.87516 12.0051 5.81266 11.8178 5.7003 11.6607C5.58795 11.5036 5.43094 11.384 5.24967 11.3173C5.07373 11.2397 4.87856 11.2165 4.68933 11.2508C4.5001 11.2851 4.32549 11.3753 4.18801 11.5098L4.15301 11.5448C4.04465 11.6533 3.91598 11.7393 3.77435 11.798C3.63272 11.8568 3.48091 11.887 3.32759 11.887C3.17427 11.887 3.02246 11.8568 2.88083 11.798C2.7392 11.7393 2.61053 11.6533 2.50217 11.5448C2.3937 11.4365 2.30765 11.3078 2.24894 11.1662C2.19023 11.0245 2.16001 10.8727 2.16001 10.7194C2.16001 10.5661 2.19023 10.4143 2.24894 10.2726C2.30765 10.131 2.3937 10.0023 2.50217 9.89398L2.53717 9.85898C2.67165 9.7215 2.76187 9.54689 2.79618 9.35766C2.83049 9.16843 2.80732 8.97326 2.72967 8.79731C2.65573 8.62478 2.53295 8.47764 2.37645 8.37399C2.21994 8.27035 2.03655 8.21473 1.84884 8.21398H1.74967C1.44025 8.21398 1.14351 8.09106 0.924716 7.87227C0.705924 7.65348 0.583008 7.35673 0.583008 7.04731C0.583008 6.7379 0.705924 6.44115 0.924716 6.22236C1.14351 6.00357 1.44025 5.88065 1.74967 5.88065H1.80217C1.99525 5.87613 2.18251 5.81363 2.3396 5.70128C2.49669 5.58893 2.61634 5.43191 2.68301 5.25065C2.76066 5.07471 2.78382 4.87954 2.74951 4.69031C2.7152 4.50108 2.62499 4.32646 2.49051 4.18898L2.45551 4.15398C2.34703 4.04563 2.26098 3.91696 2.20227 3.77533C2.14356 3.6337 2.11334 3.48188 2.11334 3.32857C2.11334 3.17525 2.14356 3.02343 2.20227 2.8818C2.26098 2.74017 2.34703 2.6115 2.45551 2.50315C2.56386 2.39468 2.69253 2.30863 2.83416 2.24991C2.97579 2.1912 3.12761 2.16098 3.28092 2.16098C3.43424 2.16098 3.58606 2.1912 3.72769 2.24991C3.86932 2.30863 3.99799 2.39468 4.10634 2.50315L4.14134 2.53815C4.27882 2.67263 4.45343 2.76284 4.64266 2.79715C4.83189 2.83146 5.02706 2.8083 5.20301 2.73065H5.24967C5.4222 2.65671 5.56935 2.53392 5.67299 2.37742C5.77664 2.22092 5.83226 2.03753 5.83301 1.84982V1.75065C5.83301 1.44123 5.95592 1.14449 6.17471 0.925693C6.39351 0.706901 6.69025 0.583984 6.99967 0.583984C7.30909 0.583984 7.60584 0.706901 7.82463 0.925693C8.04342 1.14449 8.16634 1.44123 8.16634 1.75065V1.80315C8.16709 1.99086 8.22271 2.17425 8.32635 2.33076C8.43 2.48726 8.57714 2.61004 8.74967 2.68398C8.92561 2.76163 9.12078 2.7848 9.31001 2.75049C9.49925 2.71618 9.67386 2.62596 9.81134 2.49148L9.84634 2.45648C9.95469 2.34801 10.0834 2.26196 10.225 2.20325C10.3666 2.14454 10.5184 2.11432 10.6718 2.11432C10.8251 2.11432 10.9769 2.14454 11.1185 2.20325C11.2601 2.26196 11.3888 2.34801 11.4972 2.45648C11.6056 2.56484 11.6917 2.69351 11.7504 2.83514C11.8091 2.97677 11.8393 3.12858 11.8393 3.2819C11.8393 3.43522 11.8091 3.58703 11.7504 3.72866C11.6917 3.87029 11.6056 3.99896 11.4972 4.10732L11.4622 4.14232C11.3277 4.2798 11.2375 4.45441 11.2032 4.64364C11.1689 4.83287 11.192 5.02804 11.2697 5.20398V5.25065C11.3436 5.42318 11.4664 5.57033 11.6229 5.67397C11.7794 5.77761 11.9628 5.83323 12.1505 5.83398H12.2497C12.5591 5.83398 12.8558 5.9569 13.0746 6.17569C13.2934 6.39448 13.4163 6.69123 13.4163 7.00065C13.4163 7.31007 13.2934 7.60681 13.0746 7.82561C12.8558 8.0444 12.5591 8.16731 12.2497 8.16731H12.1972C12.0095 8.16806 11.8261 8.22368 11.6696 8.32733C11.5131 8.43097 11.3903 8.57812 11.3163 8.75065V8.75065Z" stroke="#BDBDBD" strokeWidth="1.5" strokeLinecap="round" strokeLinejoin="round"/>
</g>
<defs>
<clipPath id="clip0">
<rect width="14" height="14" fill="white"/>
</clipPath>
</defs>
</svg>
