<?xml version="1.0" encoding="utf-8"?>
<!-- Generator: Adobe Illustrator 19.0.0, SVG Export Plug-In . SVG Version: 6.00 Build 0)  -->
<svg version="1.1" id="Layer_1" xmlns="http://www.w3.org/2000/svg" xmlns:xlink="http://www.w3.org/1999/xlink" x="0px" y="0px"
	 viewBox="-589 292 186 186" style="enable-background:new -589 292 186 186;" xml:space="preserve">
<g>
	<path d="M-516.9,346.6c0-6.2-5.1-11.3-11.3-11.3s-11.3,5.1-11.3,11.3s5.1,11.3,11.3,11.3S-516.9,352.8-516.9,346.6z" fill="#fff"/>
	<path d="M-453,346.6c0-6.2-5.1-11.3-11.3-11.3s-11.3,5.1-11.3,11.3s5.1,11.3,11.3,11.3S-453,352.8-453,346.6z" fill="#fff"/>
	<path d="M-407.1,461.8h-13.1v-10.3h13.1c2.4,0,4.2-1.9,4.2-4.2s-1.9-4.2-4.2-4.2h-13.1v-1.5c0-2.4-1.9-4.2-4.2-4.2
		c-10.5,0-18.1,4.7-20.8,12.5c-0.4-0.1-0.7-0.2-1.2-0.2h-128.3V306h155.1v99c0,3.8,3.2,7.1,7.1,7.1s7.1-3.1,7.1-7.1V299
		c0-3.8-3.2-7.1-7.1-7.1h-169.2c-3.8,0-7.1,3.1-7.1,7.1v157.8c0,3.8,3.1,7.1,7.1,7.1h135.4c0.4,0,0.7-0.1,1.1-0.2
		c3.1,9,12.3,12.5,20.9,12.5c2.4,0,4.2-1.9,4.2-4.2v-1.5h13.1c2.4,0,4.2-1.9,4.2-4.2C-402.8,463.8-404.7,461.8-407.1,461.8z
		 M-428.6,467.3c-4.6-0.9-9.4-3.5-9.4-10.5c0-7.2,4.8-9.7,9.4-10.5V467.3z" fill="#fff"/>
	<g>
		<path d="M-494.2,410c-12.5,0-22.8-1.9-23.4-1.9c-4.2-0.7-6.9-4.7-6.2-8.9c0.7-4.2,4.6-6.9,8.9-6.2c0.2,0,21.3,3.7,37.7,0
			c4.2-0.9,8.3,1.7,9.2,5.8c0.9,4.2-1.7,8.3-5.8,9.2C-480.6,409.5-487.6,410-494.2,410z" fill="#fff"/>
	</g>
</g>
</svg>
