<svg width="100" height="24" viewBox="0 0 200 45" fill="none" xmlns="http://www.w3.org/2000/svg">
<g opacity="0.36">
<g clip-path="url(#clip0_1_8)">
<path d="M36 2.5H4C1.79086 2.5 0 4.29086 0 6.5V38.5C0 40.7091 1.79086 42.5 4 42.5H36C38.2091 42.5 40 40.7091 40 38.5V6.5C40 4.29086 38.2091 2.5 36 2.5Z" fill="white"/>
<path d="M10 33.9376V10.8351C10 9.95566 11.0535 9.50449 11.6901 10.1114L27.4566 25.1438C27.955 25.619 27.8352 26.444 27.2222 26.7578L11.4556 34.8278C10.7902 35.1684 10 34.6852 10 33.9376Z" fill="#fdcc82db"/>
<path d="M30 11.0624V34.1649C30 35.0443 28.9465 35.4955 28.3099 34.8886L12.5434 19.8562C12.045 19.381 12.1648 18.556 12.7778 18.2422L28.5444 10.1722C29.2098 9.8316 30 10.3148 30 11.0624Z" fill="#fdcc82"/>
</g>
<path d="M56.32 12.06V15.45H50.74V33H46.54V15.45H40.96V12.06H56.32ZM63.5845 15.45V20.7H70.6345V24.03H63.5845V29.58H71.5345V33H59.3845V12.03H71.5345V15.45H63.5845ZM74.3313 22.5C74.3313 20.44 74.7913 18.6 75.7113 16.98C76.6513 15.34 77.9213 14.07 79.5213 13.17C81.1413 12.25 82.9513 11.79 84.9513 11.79C87.2913 11.79 89.3413 12.39 91.1013 13.59C92.8613 14.79 94.0913 16.45 94.7913 18.57H89.9613C89.4813 17.57 88.8013 16.82 87.9213 16.32C87.0613 15.82 86.0613 15.57 84.9213 15.57C83.7013 15.57 82.6113 15.86 81.6513 16.44C80.7113 17 79.9713 17.8 79.4313 18.84C78.9113 19.88 78.6513 21.1 78.6513 22.5C78.6513 23.88 78.9113 25.1 79.4313 26.16C79.9713 27.2 80.7113 28.01 81.6513 28.59C82.6113 29.15 83.7013 29.43 84.9213 29.43C86.0613 29.43 87.0613 29.18 87.9213 28.68C88.8013 28.16 89.4813 27.4 89.9613 26.4H94.7913C94.0913 28.54 92.8613 30.21 91.1013 31.41C89.3613 32.59 87.3113 33.18 84.9513 33.18C82.9513 33.18 81.1413 32.73 79.5213 31.83C77.9213 30.91 76.6513 29.64 75.7113 28.02C74.7913 26.4 74.3313 24.56 74.3313 22.5ZM115.749 12.06V33H111.549V24.09H102.579V33H98.3786V12.06H102.579V20.67H111.549V12.06H115.749ZM127.203 12.06C129.403 12.06 131.333 12.49 132.993 13.35C134.673 14.21 135.963 15.44 136.863 17.04C137.783 18.62 138.243 20.46 138.243 22.56C138.243 24.66 137.783 26.5 136.863 28.08C135.963 29.64 134.673 30.85 132.993 31.71C131.333 32.57 129.403 33 127.203 33H119.883V12.06H127.203ZM127.053 29.43C129.253 29.43 130.953 28.83 132.153 27.63C133.353 26.43 133.953 24.74 133.953 22.56C133.953 20.38 133.353 18.68 132.153 17.46C130.953 16.22 129.253 15.6 127.053 15.6H124.083V29.43H127.053ZM151.106 33.21C149.146 33.21 147.346 32.75 145.706 31.83C144.066 30.91 142.766 29.64 141.806 28.02C140.846 26.38 140.366 24.53 140.366 22.47C140.366 20.43 140.846 18.6 141.806 16.98C142.766 15.34 144.066 14.06 145.706 13.14C147.346 12.22 149.146 11.76 151.106 11.76C153.086 11.76 154.886 12.22 156.506 13.14C158.146 14.06 159.436 15.34 160.376 16.98C161.336 18.6 161.816 20.43 161.816 22.47C161.816 24.53 161.336 26.38 160.376 28.02C159.436 29.64 158.146 30.91 156.506 31.83C154.866 32.75 153.066 33.21 151.106 33.21ZM151.106 29.46C152.366 29.46 153.476 29.18 154.436 28.62C155.396 28.04 156.146 27.22 156.686 26.16C157.226 25.1 157.496 23.87 157.496 22.47C157.496 21.07 157.226 19.85 156.686 18.81C156.146 17.75 155.396 16.94 154.436 16.38C153.476 15.82 152.366 15.54 151.106 15.54C149.846 15.54 148.726 15.82 147.746 16.38C146.786 16.94 146.036 17.75 145.496 18.81C144.956 19.85 144.686 21.07 144.686 22.47C144.686 23.87 144.956 25.1 145.496 26.16C146.036 27.22 146.786 28.04 147.746 28.62C148.726 29.18 149.846 29.46 151.106 29.46ZM163.921 22.5C163.921 20.44 164.381 18.6 165.301 16.98C166.241 15.34 167.511 14.07 169.111 13.17C170.731 12.25 172.541 11.79 174.541 11.79C176.881 11.79 178.931 12.39 180.691 13.59C182.451 14.79 183.681 16.45 184.381 18.57H179.551C179.071 17.57 178.391 16.82 177.511 16.32C176.651 15.82 175.651 15.57 174.511 15.57C173.291 15.57 172.201 15.86 171.241 16.44C170.301 17 169.561 17.8 169.021 18.84C168.501 19.88 168.241 21.1 168.241 22.5C168.241 23.88 168.501 25.1 169.021 26.16C169.561 27.2 170.301 28.01 171.241 28.59C172.201 29.15 173.291 29.43 174.511 29.43C175.651 29.43 176.651 29.18 177.511 28.68C178.391 28.16 179.071 27.4 179.551 26.4H184.381C183.681 28.54 182.451 30.21 180.691 31.41C178.951 32.59 176.901 33.18 174.541 33.18C172.541 33.18 170.731 32.73 169.111 31.83C167.511 30.91 166.241 29.64 165.301 28.02C164.381 26.4 163.921 24.56 163.921 22.5Z" fill="black"/>
</g>
<defs>
<linearGradient id="paint0_linear_1_8" x1="19" y1="10" x2="10.4716" y2="34.9903" gradientUnits="userSpaceOnUse">
<stop stop-color="#F2994A"/>
<stop offset="0.0001" stop-color="#FFA842"/>
<stop offset="1" stop-color="#FFECBC"/>
</linearGradient>
<linearGradient id="paint1_linear_1_8" x1="13.0001" y1="19.5" x2="25.7461" y2="13.4853" gradientUnits="userSpaceOnUse">
<stop stop-color="#FFEAC0"/>
<stop offset="1" stop-color="#FDB447"/>
</linearGradient>
<clipPath id="clip0_1_8">
<rect width="40" height="40" fill="white" transform="translate(0 2.5)"/>
</clipPath>
</defs>
</svg>
