<svg width="18" height="18" viewBox="0 0 16 16" fill="none" xmlns="http://www.w3.org/2000/svg">
<path d="M9.91732 12.25V11.0833C9.91732 10.4645 9.67148 9.871 9.2339 9.43342C8.79632 8.99583 8.20282 8.75 7.58398 8.75H2.91732C2.29848 8.75 1.70499 8.99583 1.2674 9.43342C0.829817 9.871 0.583984 10.4645 0.583984 11.0833V12.25" stroke="#212121" strokeLinecap="round" strokeLinejoin="round"/>
<path d="M5.24935 6.41667C6.53801 6.41667 7.58268 5.372 7.58268 4.08333C7.58268 2.79467 6.53801 1.75 5.24935 1.75C3.96068 1.75 2.91602 2.79467 2.91602 4.08333C2.91602 5.372 3.96068 6.41667 5.24935 6.41667Z" stroke="#212121" strokeLinecap="round" strokeLinejoin="round"/>
<path d="M13.416 12.2503V11.0837C13.4156 10.5667 13.2436 10.0645 12.9268 9.65586C12.6101 9.24726 12.1666 8.95542 11.666 8.82617" stroke="#212121" strokeLinecap="round" strokeLinejoin="round"/>
<path d="M9.33398 1.82617C9.83589 1.95468 10.2808 2.24658 10.5984 2.65585C10.9161 3.06513 11.0886 3.56849 11.0886 4.08659C11.0886 4.60469 10.9161 5.10805 10.5984 5.51732C10.2808 5.9266 9.83589 6.2185 9.33398 6.34701" stroke="#212121" strokeLinecap="round" strokeLinejoin="round"/>
</svg>
