<svg width="182" height="48" viewBox="0 0 182 48" fill="none" xmlns="http://www.w3.org/2000/svg">
<path d="M12 37.7251V10.0021C12 8.94679 13.2642 8.40538 14.0281 9.13364L32.9479 27.1726C33.546 27.7428 33.4022 28.7328 32.6666 29.1094L13.7467 38.7934C12.9482 39.2021 12 38.6222 12 37.7251Z" fill="url(#paint0_linear_19_2261)"/>
<path d="M35.9992 9.67483V37.3979C35.9992 38.4532 34.735 38.9946 33.9712 38.2663L15.0513 20.2274C14.4532 19.6572 14.597 18.6672 15.3326 18.2906L34.2525 8.60663C35.051 8.19792 35.9992 8.77782 35.9992 9.67483Z" fill="url(#paint1_linear_19_2261)"/>
<path d="M65.6326 14.2806V33.7328H61.9719V14.2806H65.6326ZM71.6713 14.2806V17.1797H56V14.2806H71.6713Z" fill="black"/>
<path d="M87.5559 30.847V33.7328H77.2152V30.847H87.5559ZM78.3375 14.2806V33.7328H74.6635V14.2806H78.3375ZM86.2065 22.31V25.1289H77.2152V22.31H86.2065ZM87.5158 14.2806V17.1797H77.2152V14.2806H87.5158Z" fill="black"/>
<path d="M102.038 27.3333H105.712C105.614 28.6337 105.253 29.7871 104.63 30.7936C104.006 31.7911 103.138 32.5749 102.024 33.145C100.911 33.715 99.5616 34 97.9762 34C96.756 34 95.656 33.7862 94.6763 33.3587C93.7055 32.9223 92.8727 32.3033 92.178 31.5017C91.4921 30.6912 90.9666 29.7203 90.6015 28.5892C90.2363 27.4491 90.0537 26.171 90.0537 24.7548V23.2719C90.0537 21.8557 90.2407 20.5776 90.6148 19.4375C90.9889 18.2975 91.5233 17.3267 92.218 16.5251C92.9217 15.7145 93.7633 15.0911 94.7431 14.6546C95.7317 14.2182 96.8362 14 98.0564 14C99.6418 14 100.982 14.2939 102.078 14.8818C103.173 15.4607 104.024 16.2578 104.63 17.2732C105.235 18.2886 105.6 19.4554 105.725 20.7735H102.051C101.98 19.9541 101.802 19.2594 101.517 18.6894C101.241 18.1193 100.822 17.6874 100.261 17.3935C99.7086 17.0906 98.9738 16.9392 98.0564 16.9392C97.3438 16.9392 96.7159 17.0728 96.1726 17.34C95.6382 17.6072 95.1929 18.008 94.8366 18.5424C94.4803 19.0679 94.2131 19.727 94.035 20.5197C93.8569 21.3035 93.7678 22.212 93.7678 23.2452V24.7548C93.7678 25.7435 93.848 26.6297 94.0083 27.4135C94.1686 28.1973 94.418 28.8608 94.7564 29.4041C95.0949 29.9475 95.5313 30.3616 96.0657 30.6466C96.6001 30.9316 97.237 31.0741 97.9762 31.0741C98.8758 31.0741 99.6061 30.9316 100.167 30.6466C100.737 30.3616 101.169 29.943 101.463 29.3908C101.766 28.8386 101.958 28.1528 102.038 27.3333Z" fill="black"/>
<path d="M122.01 22.31V25.1957H111.777V22.31H122.01ZM112.779 14.2806V33.7328H109.105V14.2806H112.779ZM124.736 14.2806V33.7328H121.062V14.2806H124.736Z" fill="black"/>
<path d="M134.836 33.7328H130.64L130.667 30.847H134.836C135.967 30.847 136.915 30.5976 137.681 30.0989C138.447 29.5912 139.026 28.8653 139.418 27.9212C139.81 26.9682 140.006 25.8281 140.006 24.501V23.499C140.006 22.4747 139.895 21.5707 139.672 20.7869C139.449 20.0031 139.12 19.344 138.683 18.8096C138.256 18.2752 137.726 17.87 137.093 17.5939C136.461 17.3177 135.735 17.1797 134.916 17.1797H130.56V14.2806H134.916C136.216 14.2806 137.401 14.4988 138.469 14.9352C139.547 15.3716 140.478 15.9996 141.262 16.819C142.054 17.6295 142.66 18.6003 143.079 19.7315C143.506 20.8626 143.72 22.1274 143.72 23.5257V24.501C143.72 25.8904 143.506 27.1552 143.079 28.2953C142.66 29.4264 142.054 30.3972 141.262 31.2077C140.478 32.0183 139.543 32.6417 138.456 33.0782C137.369 33.5146 136.163 33.7328 134.836 33.7328ZM132.698 14.2806V33.7328H129.024V14.2806H132.698Z" fill="black"/>
<path d="M163.145 23.5124V24.5144C163.145 25.984 162.949 27.3066 162.557 28.4823C162.165 29.6491 161.609 30.6422 160.887 31.4616C160.166 32.281 159.306 32.9089 158.309 33.3454C157.311 33.7818 156.202 34 154.982 34C153.78 34 152.675 33.7818 151.669 33.3454C150.671 32.9089 149.807 32.281 149.077 31.4616C148.346 30.6422 147.781 29.6491 147.38 28.4823C146.979 27.3066 146.779 25.984 146.779 24.5144V23.5124C146.779 22.0338 146.979 20.7112 147.38 19.5444C147.781 18.3776 148.342 17.3845 149.063 16.5651C149.785 15.7368 150.644 15.1044 151.642 14.668C152.648 14.2316 153.753 14.0134 154.955 14.0134C156.175 14.0134 157.284 14.2316 158.282 14.668C159.279 15.1044 160.139 15.7368 160.86 16.5651C161.591 17.3845 162.152 18.3776 162.544 19.5444C162.945 20.7112 163.145 22.0338 163.145 23.5124ZM159.431 24.5144V23.4856C159.431 22.4257 159.333 21.495 159.137 20.6934C158.941 19.8829 158.652 19.2015 158.269 18.6493C157.886 18.0971 157.413 17.6829 156.852 17.4068C156.291 17.1218 155.659 16.9793 154.955 16.9793C154.243 16.9793 153.61 17.1218 153.058 17.4068C152.515 17.6829 152.052 18.0971 151.669 18.6493C151.286 19.2015 150.992 19.8829 150.787 20.6934C150.591 21.495 150.493 22.4257 150.493 23.4856V24.5144C150.493 25.5654 150.591 26.4961 150.787 27.3066C150.992 28.1171 151.286 28.8029 151.669 29.3641C152.061 29.9163 152.533 30.3349 153.085 30.6199C153.637 30.9049 154.269 31.0474 154.982 31.0474C155.694 31.0474 156.327 30.9049 156.879 30.6199C157.431 30.3349 157.894 29.9163 158.269 29.3641C158.652 28.8029 158.941 28.1171 159.137 27.3066C159.333 26.4961 159.431 25.5654 159.431 24.5144Z" fill="black"/>
<path d="M178.188 27.3333H181.862C181.764 28.6337 181.403 29.7871 180.78 30.7936C180.156 31.7911 179.288 32.5749 178.174 33.145C177.061 33.715 175.712 34 174.126 34C172.906 34 171.806 33.7862 170.826 33.3587C169.856 32.9223 169.023 32.3033 168.328 31.5017C167.642 30.6912 167.117 29.7203 166.752 28.5892C166.386 27.4491 166.204 26.171 166.204 24.7548V23.2719C166.204 21.8557 166.391 20.5776 166.765 19.4375C167.139 18.2975 167.673 17.3267 168.368 16.5251C169.072 15.7145 169.914 15.0911 170.893 14.6546C171.882 14.2182 172.986 14 174.207 14C175.792 14 177.132 14.2939 178.228 14.8818C179.323 15.4607 180.174 16.2578 180.78 17.2732C181.385 18.2886 181.751 19.4554 181.875 20.7735H178.201C178.13 19.9541 177.952 19.2594 177.667 18.6894C177.391 18.1193 176.972 17.6874 176.411 17.3935C175.859 17.0906 175.124 16.9392 174.207 16.9392C173.494 16.9392 172.866 17.0728 172.323 17.34C171.788 17.6072 171.343 18.008 170.987 18.5424C170.631 19.0679 170.363 19.727 170.185 20.5197C170.007 21.3035 169.918 22.212 169.918 23.2452V24.7548C169.918 25.7435 169.998 26.6297 170.158 27.4135C170.319 28.1973 170.568 28.8608 170.907 29.4041C171.245 29.9475 171.681 30.3616 172.216 30.6466C172.75 30.9316 173.387 31.0741 174.126 31.0741C175.026 31.0741 175.756 30.9316 176.317 30.6466C176.887 30.3616 177.319 29.943 177.613 29.3908C177.916 28.8386 178.108 28.1528 178.188 27.3333Z" fill="black"/>
<defs>
<linearGradient id="paint0_linear_19_2261" x1="22.8" y1="9" x2="12.5659" y2="38.9884" gradientUnits="userSpaceOnUse">
<stop stop-color="#EC5413"/>
<stop offset="1" stop-color="#FFA34D"/>
</linearGradient>
<linearGradient id="paint1_linear_19_2261" x1="15.5994" y1="19.8" x2="30.8946" y2="12.5824" gradientUnits="userSpaceOnUse">
<stop stop-color="#FFA34D"/>
<stop offset="1" stop-color="#EC5413"/>
</linearGradient>
</defs>
</svg>
