<svg width="150" height="32" viewBox="0 0 150 32" fill="none" xmlns="http://www.w3.org/2000/svg">
<path d="M58.1295 25.9324H63.2479C64.2496 25.9324 64.954 25.7289 65.361 25.3219C65.7993 24.8837 66.0184 24.1636 66.0184 23.1619V8.83965C66.0184 7.83788 65.7993 7.13351 65.361 6.72654C64.954 6.28826 64.2496 6.06913 63.2479 6.06913H58.1295C57.7851 6.06913 57.6129 6.24131 57.6129 6.58567V25.4159C57.6129 25.7602 57.7851 25.9324 58.1295 25.9324ZM51.6492 30.1117V1.88986C51.6492 1.23245 51.9779 0.903739 52.6354 0.903739H64.234C66.6758 0.903739 68.5698 1.5768 69.9159 2.92294C71.2934 4.23776 71.9821 6.11609 71.9821 8.55791V23.4436C71.9821 25.8854 71.2934 27.7794 69.9159 29.1255C68.5698 30.4404 66.6758 31.0978 64.234 31.0978H52.6354C51.9779 31.0978 51.6492 30.7691 51.6492 30.1117Z" fill="black"/>
<path d="M80.7508 31.0978H76.2428C75.6793 31.0978 75.4915 30.7691 75.6793 30.1117L83.0987 1.88986C83.3178 1.23245 83.7874 0.903739 84.5074 0.903739H90.7528C91.5355 0.903739 92.0051 1.23245 92.1616 1.88986L99.581 30.1117C99.7688 30.7691 99.581 31.0978 99.0175 31.0978H94.5095C94.1651 31.0978 93.9303 31.0352 93.8051 30.91C93.6799 30.7534 93.586 30.4873 93.5234 30.1117L92.2085 24.9463H83.0517L81.7369 30.1117C81.6743 30.4873 81.5647 30.7534 81.4082 30.91C81.283 31.0352 81.0638 31.0978 80.7508 31.0978ZM87.5597 6.58567L84.1787 20.1566H91.1285L87.7475 6.58567H87.5597Z" fill="black"/>
<path d="M102.992 23.3967V22.4575C102.992 21.8001 103.321 21.4714 103.978 21.4714H107.97C108.627 21.4714 108.956 21.8001 108.956 22.4575V22.8332C108.956 24.0228 109.19 24.8367 109.66 25.275C110.13 25.7133 110.991 25.9324 112.243 25.9324H114.45C115.671 25.9324 116.516 25.6976 116.986 25.228C117.486 24.7584 117.737 23.8819 117.737 22.5984V22.0349C117.737 21.127 117.361 20.4383 116.61 19.9687C115.89 19.4678 114.982 19.1704 113.886 19.0765C112.791 18.9826 111.601 18.8104 110.317 18.56C109.065 18.2782 107.891 17.9339 106.796 17.5269C105.7 17.0886 104.776 16.259 104.025 15.0381C103.305 13.7859 102.945 12.1893 102.945 10.2484V8.60486C102.945 6.16304 103.634 4.26907 105.011 2.92294C106.389 1.5768 108.298 0.903739 110.74 0.903739H115.436C117.909 0.903739 119.834 1.5768 121.212 2.92294C122.589 4.26907 123.278 6.16304 123.278 8.60486V9.49707C123.278 10.1545 122.949 10.4832 122.292 10.4832H118.3C117.643 10.4832 117.314 10.1545 117.314 9.49707V9.21532C117.314 7.99441 117.079 7.16482 116.61 6.72654C116.14 6.28826 115.279 6.06913 114.027 6.06913H112.196C110.912 6.06913 110.036 6.31957 109.566 6.82046C109.128 7.29004 108.909 8.2292 108.909 9.63794V10.5301C108.909 12.0015 110.192 12.8467 112.759 13.0659C115.42 13.285 117.784 13.8172 119.85 14.6625C120.946 15.132 121.854 15.9773 122.574 17.1982C123.325 18.3878 123.701 19.9218 123.701 21.8001V23.3967C123.701 25.8385 123.012 27.7325 121.634 29.0786C120.257 30.4247 118.347 31.0978 115.905 31.0978H110.787C108.345 31.0978 106.436 30.4247 105.058 29.0786C103.681 27.7325 102.992 25.8385 102.992 23.3967Z" fill="black"/>
<path d="M134.034 31.0978H130.043C129.385 31.0978 129.057 30.7691 129.057 30.1117V1.88986C129.057 1.23245 129.385 0.903739 130.043 0.903739H134.034C134.692 0.903739 135.02 1.23245 135.02 1.88986V12.925C135.02 13.2694 135.208 13.4415 135.584 13.4415H143.52C143.864 13.4415 144.036 13.2694 144.036 12.925V1.88986C144.036 1.23245 144.365 0.903739 145.022 0.903739H149.014C149.671 0.903739 150 1.23245 150 1.88986V30.1117C150 30.7691 149.671 31.0978 149.014 31.0978H145.022C144.365 31.0978 144.036 30.7691 144.036 30.1117V19.1235C144.036 18.7791 143.864 18.6069 143.52 18.6069H135.584C135.208 18.6069 135.02 18.7791 135.02 19.1235V30.1117C135.02 30.7691 134.692 31.0978 134.034 31.0978Z" fill="black"/>
<path d="M6.48022 25.9305H11.5986C12.6004 25.9305 13.3048 25.727 13.7118 25.3201C14.15 24.8818 14.3692 24.1618 14.3692 23.16V8.83777C14.3692 7.836 14.15 7.13163 13.7118 6.72466C13.3048 6.28638 12.6004 6.06724 11.5986 6.06724H6.48022C6.13586 6.06724 5.96368 6.23942 5.96368 6.58378V25.414C5.96368 25.7583 6.13586 25.9305 6.48022 25.9305ZM0 30.1098V1.88797C0 1.23056 0.328707 0.901855 0.98612 0.901855H12.5848C15.0266 0.901855 16.9206 1.57492 18.2667 2.92105C19.6441 4.23588 20.3329 6.1142 20.3329 8.55602V23.4417C20.3329 25.8836 19.6441 27.7775 18.2667 29.1237C16.9206 30.4385 15.0266 31.0959 12.5848 31.0959H0.98612C0.328707 31.0959 0 30.7672 0 30.1098Z" fill="black"/>
<path fill-rule="evenodd" clip-rule="evenodd" d="M25.7662 0.903739C24.9602 0.903739 24.3068 1.55712 24.3068 2.36312V12.9436C24.3068 13.7496 24.9602 14.403 25.7662 14.403H46.1975C47.0035 14.403 47.6569 13.7496 47.6569 12.9436V2.36312C47.6569 1.55713 47.0035 0.903739 46.1975 0.903739H25.7662ZM30.1444 10.3897C31.7563 10.3897 33.0631 9.08293 33.0631 7.47094C33.0631 5.85896 31.7563 4.55219 30.1444 4.55219C28.5324 4.55219 27.2256 5.85896 27.2256 7.47094C27.2256 9.08293 28.5324 10.3897 30.1444 10.3897Z" fill="black"/>
<path fill-rule="evenodd" clip-rule="evenodd" d="M25.7662 17.5985C24.9602 17.5985 24.3068 18.2519 24.3068 19.0579V29.6384C24.3068 30.4444 24.9602 31.0978 25.7662 31.0978H46.1975C47.0035 31.0978 47.6569 30.4444 47.6569 29.6384V19.0579C47.6569 18.2519 47.0035 17.5985 46.1975 17.5985H25.7662ZM30.1444 27.4493C31.7563 27.4493 33.0631 26.1426 33.0631 24.5306C33.0631 22.9186 31.7563 21.6118 30.1444 21.6118C28.5324 21.6118 27.2256 22.9186 27.2256 24.5306C27.2256 26.1426 28.5324 27.4493 30.1444 27.4493Z" fill="black"/>
</svg>
