<svg width="150" height="30" viewBox="0 0 150 30" fill="none" xmlns="http://www.w3.org/2000/svg">
<path fill-rule="evenodd" clip-rule="evenodd" d="M27.3429 0.129883H16.6654C7.83065 0.129883 0 5.29728 0 14.9165C0 25.7962 7.99757 29.8703 17.5446 29.8703H27.3426V15.9715H20.8105V23.8215H16.958C11.4311 23.8215 6.78268 21.0913 6.78268 15.2521C6.78268 8.48955 11.3471 6.17909 17.4182 6.17909H27.3419L27.3429 0.129883Z" fill="#1A237E"/>
<path d="M42.7973 0.129883H36.2651V29.8691H42.7973V0.129883Z" fill="#1A237E"/>
<path fill-rule="evenodd" clip-rule="evenodd" d="M51.7194 29.8703H62.3969C71.2317 29.8703 79.0623 24.7029 79.0623 15.0837C79.0623 4.20395 71.0648 0.129883 61.5177 0.129883H51.7198V14.0287H58.2519V6.17871H62.1043C67.6312 6.17871 72.2796 8.90889 72.2796 14.748C72.2796 21.5106 67.7153 23.8211 61.6441 23.8211H51.7205L51.7194 29.8703Z" fill="#1A237E"/>
<path fill-rule="evenodd" clip-rule="evenodd" d="M87.9845 29.8703H98.662C107.497 29.8703 115.327 24.7029 115.327 15.0842C115.327 4.20362 107.329 0.129883 97.7828 0.129883H87.9848V14.0287H94.5166V6.17871H98.3691C103.896 6.17871 108.544 8.90889 108.544 14.7477C108.544 21.5106 103.98 23.8211 97.9085 23.8211H87.9848L87.9845 29.8703Z" fill="#1A237E"/>
<path fill-rule="evenodd" clip-rule="evenodd" d="M124.25 29.8703H130.781V17.0224H143.468V29.8703H150V0.129883H143.468V11.2195H130.781V0.129883H124.25V29.8703Z" fill="#1A237E"/>
</svg>
