<svg width="150" height="50" viewBox="0 0 150 50" fill="none" xmlns="http://www.w3.org/2000/svg">
<path fill-rule="evenodd" clip-rule="evenodd" d="M0.239359 19.4047L53.4787 0.821735C53.5531 0.797208 53.6343 0.802733 53.7047 0.837131C53.7751 0.871529 53.8293 0.932072 53.8557 1.00583C53.8667 1.03775 53.8724 1.07128 53.8724 1.10505V48.8937C53.8724 48.9733 53.8408 49.0496 53.7844 49.1059C53.7281 49.1621 53.6517 49.1937 53.572 49.1937H53.5325L0.284837 46.5996C0.207894 46.5957 0.135426 46.5623 0.0824137 46.5065C0.029401 46.4506 -0.000103133 46.3766 2.70883e-07 46.2996V19.6976C3.65149e-05 19.6289 0.0238972 19.5623 0.0675297 19.5091C0.111162 19.4559 0.171876 19.4183 0.239359 19.4047ZM149.999 47.6982V24.2678H147.775L142.92 26.9886L143.547 28.9276L147.462 26.7076V47.6994H150L149.999 47.6982ZM137.193 36.6238C136.535 41.0289 134.071 45.0838 129.489 45.7282L127.078 45.8836V48.0354C132.988 48.2984 137.473 44.7097 139.115 39.0361C140.641 33.7667 140.099 23.8541 132.652 23.8541C123.437 23.8541 122.458 39.2107 131.713 39.2131C132.752 39.2328 133.78 39.0082 134.716 38.5573C135.651 38.1065 136.468 37.4421 137.099 36.6178H137.191L137.193 36.6238ZM132.432 25.8649C136.251 25.8852 137.205 30.288 137.193 33.4248C137.174 37.6411 127.88 39.8072 127.858 31.9484C127.851 29.1487 129.266 25.8864 132.432 25.8649ZM6.05218 24.5224C5.78869 24.4719 5.51584 24.5215 5.28703 24.6614C5.05822 24.8014 4.88991 25.0215 4.81507 25.2789C4.74022 25.5362 4.76421 25.8122 4.88234 26.0528C5.00048 26.2934 5.20425 26.4813 5.45378 26.5797L24.9053 32.1983L25.3397 31.8396L44.7098 15.877C44.835 15.7936 44.9413 15.6848 45.0218 15.5578C45.1023 15.4308 45.1553 15.2883 45.1773 15.1396C45.1993 14.9909 45.1899 14.8392 45.1497 14.6943C45.1094 14.5495 45.0392 14.4146 44.9435 14.2985C44.8479 14.1824 44.729 14.0877 44.5944 14.0203C44.4599 13.9529 44.3126 13.9145 44.1623 13.9074C44.012 13.9004 43.8618 13.9249 43.7215 13.9794C43.5812 14.0339 43.4539 14.1171 43.3478 14.2237L24.4146 29.8313L6.05218 24.5224Z" fill="#1E75BA"/>
<path fill-rule="evenodd" clip-rule="evenodd" d="M122.605 35.4033H115.213V37.4989H120.036V45.1329C118.138 46.1957 114.265 45.9398 112.284 45.158C105.941 42.6536 105.437 32.6514 109.544 28.4315C112.368 25.5314 117.715 25.0807 121.258 26.7986L121.948 24.6468C118.557 23.3099 114.79 23.2724 111.372 24.5416C102.326 28.1088 102.289 41.3649 108.642 45.947C112.37 48.6379 118.437 48.3893 122.605 46.724V35.4033ZM101.313 24.6444C97.7432 22.3575 89.112 23.2075 89.1311 29.8015C89.1443 35.2897 95.1282 35.9675 97.6918 37.8683C101.415 40.6297 99.6952 47.0922 92.5755 45.6577C91.4273 45.439 90.331 45.0054 89.3441 44.3798L88.6261 46.5316C92.4702 49.2368 102.219 48.7826 102.219 41.3386C102.219 33.3723 91.7593 35.3937 91.7593 29.4512C91.7593 25.1357 97.7887 25.0066 100.529 26.789L101.312 24.6372L101.313 24.6444ZM84.4983 23.859H81.2418C79.2971 29.2683 75.8395 38.1827 74.4201 43.9423H74.3256C72.6692 37.4487 69.919 30.2283 67.7121 23.8602H64.5191L62.8579 47.6995H65.3329L66.4591 26.7005H66.5536C68.1322 33.2754 71.0595 41.1342 73.2556 47.5979H75.1705C77.6108 40.7457 80.3143 33.6341 82.3393 26.7005H82.4327C82.3967 32.1242 83.1507 42.5281 83.4356 47.6923H86.0003L84.4983 23.859Z" fill="#4B4B4D"/>
</svg>
