<svg width="150" height="68" viewBox="0 0 150 68" fill="none" xmlns="http://www.w3.org/2000/svg">
<g clip-path="url(#clip0_111_128)">
<path fill-rule="evenodd" clip-rule="evenodd" d="M62.6616 24.2864C61.4698 27.4138 58.052 35.8158 59.2566 39.1127C59.9589 41.0347 64.6079 37.4499 65.9895 32.5114C67.1146 28.4916 69.0434 29.6254 68.5984 30.6319C67.5628 32.9743 66.1196 34.9349 66.8266 36.2314C68.2488 38.8359 73.1933 31.7419 74.6886 28.5333C75.0366 27.7861 76.3362 28.8578 73.927 32.2251C72.5919 34.091 72.5359 33.508 72.0288 36.3527C71.7624 38.06 72.275 39.1878 73.4168 40.3252L73.3456 40.4457C71.2963 38.8979 71.2048 37.1799 71.7238 34.8287C70.1036 36.6649 66.9794 40.2393 65.5918 36.503C62.9635 40.4234 58.7372 42.1005 58.2266 39.0566C57.3326 33.726 60.6863 28.9028 62.6616 24.2864ZM134.348 34.9791C142.092 29.2889 134.583 29.2424 133.499 36.7269C133.248 38.4608 135.495 40.1244 139.285 34.6574L141.301 31.3633C141.142 27.9058 141.626 24.2601 144.996 22.3743C146.131 21.74 146.645 23.7408 146.03 24.9676C140.38 36.233 143.101 29.446 141.459 39.0987L141.349 39.0641L141.413 33.7955C133.824 45.5588 129.252 36.4457 135.368 31.0499C137.813 28.8936 141.449 30.8682 134.348 34.9791ZM141.984 30.2458C142.73 29.0245 145.031 24.8368 145.142 23.5184C143.561 24.3735 141.877 27.5462 141.984 30.2458ZM126.633 33.5024C126.838 35.399 126.948 35.1008 126.691 36.7695C129.434 34.993 130.136 32.2469 131.041 31.8803C131.886 31.5378 131.787 33.2929 130.262 35.2324C130.308 35.3537 130.372 35.4722 130.439 35.5911L130.376 35.6802C130.259 35.6225 130.156 35.5517 130.07 35.4686C128.277 37.6126 125.438 38.8156 125.57 37.7203L126.633 33.5024ZM117.282 26.5675C116.009 29.1501 111.694 37.4495 111.422 39.7561C110.624 46.5411 118.08 42.4063 122.098 34.484C111.837 28.974 124.264 3.19968 130.769 7.03304C136.764 10.5657 126.093 30.6065 123.325 34.6872C123.964 34.9724 123.886 35.0682 123.219 34.8423C115.168 48.2059 109.418 44.6505 110.674 39.6985C111.926 35.133 115.038 30.2398 117.282 26.5675ZM122.333 34.1499C128.218 25.147 136.077 2.52436 127.384 8.54978C121.692 12.4949 114.362 28.9549 122.333 34.1499ZM103.393 24.6371C102.81 31.8946 103.157 29.782 101.363 36.845C107.778 27.5952 109.05 29.8544 115.039 25.135L115.132 25.205C109.268 30.0131 106.381 30.9381 102.995 36.6891C103.135 36.7838 105.874 39.0319 105.902 39.2713C104.577 39.9804 103.281 38.8335 102.431 37.6595C99.7362 42.3264 100.712 39.601 99.459 44.3431C99.4105 44.5276 95.5401 46.3208 99.1174 40.4704C100.409 38.3578 102.736 27.9825 103.393 24.6371ZM106.419 30.7445L106.425 30.7377L106.416 30.7465L106.419 30.7445ZM80.2614 34.2255C80.8142 33.3211 82.6694 31.1378 80.0956 31.4874C77.0278 31.9041 73.3237 40.1037 79.8589 34.9075C82.5258 32.7866 81.7217 30.937 83.487 29.7085C83.7272 29.5415 83.9885 29.926 83.9611 30.1197C83.5213 33.2153 81.2683 32.9191 82.4503 36.3801C83.0492 38.1332 84.2478 38.5941 85.9448 37.6754C87.6926 36.6259 89.4401 35.576 91.1879 34.5265C94.0799 23.5069 98.9842 11.2856 103.343 2.95989C105 -0.206918 110.368 -1.32681 108.982 4.27744C105.953 17.1686 100.957 27.2774 92.5237 35.1131C89.6687 46.1633 87.8214 56.0462 89.3585 67.6402C89.3144 67.6505 89.2702 67.6609 89.2261 67.6708C86.076 56.4612 88.1213 46.7873 90.8399 35.8866C89.1816 36.8546 86.3305 38.8148 84.766 39.0153C82.4228 39.2145 81.2023 36.8371 81.2433 34.6999C76.1354 39.5629 73.2732 36.5762 77.9854 32.1758C79.363 30.8893 83.8557 29.759 80.2614 34.2255ZM93.4456 32.4323C100.937 25.4174 104.783 13.7735 107.638 4.00657C108.157 -0.0932113 105.735 2.26866 104.373 3.74927C100.73 13.3105 97.088 22.8713 93.4456 32.4323ZM86.3433 38.5106C86.3401 38.5121 86.3373 38.5141 86.3345 38.5157C86.3429 38.5117 86.3512 38.5074 86.3596 38.503C86.354 38.5058 86.3484 38.5082 86.3433 38.5106Z" fill="#323232"/>
<path fill-rule="evenodd" clip-rule="evenodd" d="M45.9688 13.4915C45.35 11.8181 43.8726 10.6155 42.1072 10.3534L20.9887 7.1977C19.244 6.93523 17.491 7.70476 16.5051 9.19371L3.98583 28.0951C3.17374 29.3188 3.16619 30.9295 3.96355 32.1623L14.1317 47.8818C14.527 48.4942 15.0372 49.0482 15.6596 49.508C16.282 49.9661 16.9605 50.2902 17.664 50.4883L38.1335 56.2611C39.636 56.6851 41.2228 55.9907 41.9362 54.6031L51.9779 35.0121C52.6981 33.6095 52.7932 31.9666 52.2491 30.4904L45.9688 13.4915Z" fill="#DC281E"/>
<path fill-rule="evenodd" clip-rule="evenodd" d="M35.8949 17.6662C37.1019 17.8734 37.3751 19.2045 36.4835 20.6354C35.739 21.8305 34.429 22.709 33.3166 22.8398C31.4316 24.658 29.5465 26.4763 27.6623 28.2953C27.5211 30.0889 25.1556 32.2996 23.3784 31.9143C21.3661 31.478 22.6927 28.8529 23.7148 27.8944C23.582 26.8596 23.4492 25.8252 23.3159 24.7908C22.8717 24.8537 22.3746 24.8 22.0282 24.489C20.5369 25.3261 19.0455 26.1633 17.5538 26.9996C17.0209 28.3907 15.141 30.1294 13.5924 29.7942C12.494 29.556 12.315 28.2484 13.188 26.8676C13.5706 26.2623 14.0931 25.7421 14.6527 25.3679L15.5773 21.6594C15.532 21.6547 15.4874 21.6479 15.4437 21.6396C14.3504 21.4288 14.1675 20.1566 15.0277 18.7996C15.4739 18.0965 16.1134 17.5052 16.7795 17.1258L17.7674 13.7275C16.9501 13.3827 16.8316 12.3264 17.6397 11.0558C18.4478 9.78521 20.0565 8.76951 21.1549 8.93893C22.2533 9.10834 22.4653 10.3444 21.6087 11.6969C21.199 12.344 20.6216 12.8987 20.0099 13.2809L18.976 16.8382C19.7113 17.2467 19.7594 18.3546 19.0117 19.5366C18.7091 20.0158 18.3174 20.4425 17.8883 20.7861L16.8853 24.8079C16.9732 24.8338 17.0547 24.8668 17.1295 24.907C18.7441 24.001 20.3587 23.0947 21.9733 22.1884C22.0298 22.0778 22.0934 21.9661 22.1642 21.8539C23.0395 20.4628 24.6713 19.5067 25.8238 19.7167C26.9767 19.9267 27.2105 21.2363 26.328 22.6417C26.0349 23.1086 25.6571 23.5258 25.2411 23.867C25.3676 24.8437 25.4929 25.8209 25.6189 26.798C25.8782 26.7336 26.1312 26.7061 26.3694 26.7216C28.1145 25.0374 29.8539 23.3596 31.6002 21.6746C31.5401 21.1552 31.7076 20.5141 32.1208 19.8535C33.0048 18.4394 34.6883 17.4591 35.8949 17.6662ZM45.4748 20.7201C46.0228 19.564 46.8345 19.8106 47.2839 21.2224C47.7238 22.6064 47.6522 24.6155 47.134 25.7378C46.6094 26.872 45.8121 26.7169 45.346 25.3627C44.8695 23.9768 44.9272 21.8762 45.4748 20.7201ZM47.1228 32.8787C47.6323 31.7528 48.3748 31.8463 48.782 33.0525C49.1805 34.2332 49.1065 36.0526 48.6217 37.1483C48.1342 38.2503 47.4024 38.2344 46.9805 37.0803C46.5506 35.9015 46.6134 34.0045 47.1228 32.8787ZM42.9698 31.9708C43.5257 30.7773 44.3625 30.8898 44.8373 32.1791C45.3022 33.4418 45.2469 35.3774 44.7204 36.5358C44.1895 37.705 43.3663 37.6768 42.8747 36.4456C42.3717 35.1861 42.4138 33.1642 42.9698 31.9708ZM42.5999 42.8762C43.1404 41.6831 43.9568 41.6684 44.4213 42.8054C44.8763 43.9182 44.8254 45.736 44.3124 46.8953C43.797 48.0601 42.994 48.1531 42.5136 47.0714C42.0221 45.9659 42.0595 44.0697 42.5999 42.8762ZM38.1649 39.4951C38.7618 38.2252 39.6904 38.2535 40.2376 39.5114C40.7706 40.7398 40.7407 42.7088 40.1772 43.938C39.6097 45.1768 38.6982 45.2377 38.1339 44.0454C37.556 42.8209 37.5679 40.7645 38.1649 39.4951ZM33.5222 34.5772C34.1816 33.2326 35.2379 33.3237 35.879 34.7359C36.5033 36.1083 36.4993 38.2507 35.8797 39.5519C35.2546 40.8615 34.2206 40.8707 33.5596 39.5348C32.8812 38.1624 32.8625 35.9218 33.5222 34.5772ZM29.1691 42.7792C30.4565 43.1236 32.0564 44.3958 32.6859 45.5829C33.3039 46.7501 32.7495 47.3773 31.4813 47.0122C30.231 46.6515 28.7134 45.4473 28.0671 44.2976C27.4094 43.1276 27.8822 42.4344 29.1691 42.7792ZM30.0985 49.5037C31.2904 49.8668 32.7567 51.0229 33.329 52.0569C33.8941 53.0734 33.3795 53.5709 32.2063 53.1931C31.0434 52.8193 29.6479 51.7208 29.059 50.7179C28.46 49.6974 28.9063 49.1402 30.0985 49.5037ZM22.6255 43.3821C23.7816 43.7082 25.2805 44.8885 25.9311 45.9929C26.5686 47.0758 26.1399 47.6584 24.997 47.3152C23.8695 46.9752 22.4418 45.8493 21.7828 44.7819C21.1111 43.6923 21.4691 43.0556 22.6255 43.3821ZM20.3854 46.5417C21.45 46.8666 22.8514 47.9639 23.479 48.9692C24.0966 49.9547 23.7252 50.4633 22.6717 50.1241C21.6313 49.7897 20.2907 48.7445 19.656 47.7702C19.0109 46.7784 19.3211 46.2172 20.3854 46.5417ZM13.7865 39.8804C14.842 40.1723 16.2979 41.3173 17.0014 42.4113C17.6942 43.4851 17.39 44.0888 16.344 43.7794C15.3116 43.4739 13.9193 42.3835 13.2122 41.3252C12.4912 40.2467 12.731 39.5889 13.7865 39.8804ZM7.54873 32.9833C8.59943 33.2386 10.1246 34.4368 10.9092 35.6363C11.6803 36.8103 11.4389 37.5193 10.395 37.2429C9.36696 36.9693 7.91698 35.8264 7.13115 34.6727C6.32941 33.4939 6.49803 32.7276 7.54873 32.9833Z" fill="white"/>
</g>
<defs>
<clipPath id="clip0_111_128">
<rect width="150" height="67.4157" fill="white" transform="translate(0 0.291992)"/>
</clipPath>
</defs>
</svg>
